<?xml version="1.0" encoding="utf-8"?>
<!-- Svg Vector Icons : http://www.onlinewebfonts.com/icon -->
<!DOCTYPE svg PUBLIC "-//W3C//DTD SVG 1.1//EN" "http://www.w3.org/Graphics/SVG/1.1/DTD/svg11.dtd">
<svg version="1.1" xmlns="http://www.w3.org/2000/svg" xmlns:xlink="http://www.w3.org/1999/xlink" x="0px" y="0px" viewBox="0 0 1000 1000" enable-background="new 0 0 1000 1000" xml:space="preserve">
<metadata> Svg Vector Icons : http://www.onlinewebfonts.com/icon </metadata>
<g><path d="M506.1,631.3h5.4v0.8h-5.4V631.3L506.1,631.3z M446.2,941.7l3.1,1.1c-7.6-6-26.9-20-52.2-28.3c-30-9.9-74.7-13.5-117.3,25.3c-0.5,0.4-1.1,0.6-1.8,0.4c-10.2-2.5-54.2-111.4-93.5-213.4c-2.1,1.4-4.2,3.1-6.4,4.8c-3.8,3-7.9,6.3-13,8.8c49,122.6,98.3,242.5,105.5,249.5C315.6,895,376.1,916.7,446.2,941.7L446.2,941.7z M739.5,938.9c-0.7,0.2-1.3,0-1.8-0.4c-42.6-38.8-87.3-35.2-117.3-25.3c-25.1,8.3-44.4,22.1-52,28.2l0.3-0.1c65.3-24,132.9-48.8,178.2,47.3c7-6.8,53.6-120.1,101.2-239c-0.5-0.2-1-0.5-1.5-0.6c-8-2.2-13.8-6.1-18.7-10.3C790.1,836.6,749.3,936.5,739.5,938.9L739.5,938.9z M502.9,632.9l-0.2-0.3C484.7,611.8,321.9,431,133.9,473.8c-1.3,2,8.4,22.3,18.7,40.9l32.6-0.9l-16.9-29.6l1.1-0.2c109.4-17.7,292.4,116.8,327.9,144l-0.9,1.2c1,0.6,2,1.1,2.9,1.7l1.6,0.9l-1.8,0.5c-0.6,0.2-1.2,1-1.2,2.3l9.2,303.7c0,1.4,0.8,2.4,1.5,2.4h1.7c0.7,0,1.5-1,1.5-2.4l9.2-303.4c0-1.2-0.6-2-1.4-2h-3.7l2.4-1.5c41-25,124.6-53.8,212.9-73.2c70.9-15.6,152.2-26.2,167.5-9l0.3,0.4l-0.2,0.4c-1.8,4.9-16.3,44.5-35.9,96.8c7.6,1.9,16,4.4,23.3,7.2c20.4-51.5,38.8-98.5,51.9-131.9c-201.8-20.4-368.5,75.6-414.9,105.6l-0.9-1.3c49.8-38.1,220.6-161,325.9-144l1.1,0.2l-16.9,29.6l32.6,0.8c10.3-18.5,20-38.7,18.6-40.8C696.4,429.6,533,611.7,515,632.6l-0.2,0.3h-1.5v-0.8h-1.8h-5.4h-1.8v0.8L502.9,632.9L502.9,632.9L502.9,632.9z M118.8,551.2l-0.2-0.4l0.3-0.4c15.2-17.1,96.6-6.7,167.6,8.7c85.3,18.5,166.4,45.5,208.8,69.4c-48-30.8-214.2-125.4-415.8-104.9c12.2,31.2,29,74.2,47.8,121.6c8.2-2.1,17-3.8,24.4-4.9C133.7,591.8,120.5,555.8,118.8,551.2L118.8,551.2z M102.7,664.3c-0.7,4.1,1.6,7.5,3,9.2c3.5,4.1,8.2,5.8,9.7,4.8c13.1-8.3,34.1-15.5,62.3-21.5c3.4-0.7,12.9-3.8,12-8.2c-1.1-5.8-10-7-17.2-7c-2.3,0-4.3,0.1-5.5,0.2c-0.5,0-0.8,0-1.1,0.1c-10.7,0.4-39.4,5.1-54.3,11.7C108.1,655.2,103.4,660.1,102.7,664.3L102.7,664.3z M109.8,693.9c1.8,6.2,5,9.3,9.6,9.3c3.2,0,6-1.5,6.8-2l0.7-0.4c6.4-3.9,26-15.9,56.3-19.4c13.5-1.6,29.2-8.3,28.6-14.3c-0.2-2-0.8-8.2-13.8-8.2c-6.8,0-14.8,1.6-21.7,3.2c-16.5,3.8-44,12.2-58.7,18.8C114.1,682.4,108.1,687.9,109.8,693.9L109.8,693.9z M191.7,685c-0.3,0-0.6,0.1-0.9,0.1c-13.7,1.3-39,7.7-62,18.9c-3.6,1.7-7.6,6.2-7.9,10.4c-0.3,4.8,1.6,7.8,3.2,9.5c2.4,2.6,5.4,3.5,7.4,3.5c0.7,0,1.2-0.1,1.7-0.3c9.8-3.5,16.8-7.4,23.6-11.3c6.2-3.5,12.7-7.2,21-10.2c0.3-0.1,1.1-0.3,2.2-0.6c21.9-5.9,24.7-10.4,24.4-12.5c-0.8-5.3-3.7-7.8-9.2-7.8C193.9,684.7,192.6,684.8,191.7,685L191.7,685z M176.4,711.8l-0.4,0.2c-9.9,3.5-16,7.3-28,15c-2.1,1.3-4.3,2.8-6.8,4.3c-1.7,1.1-2.7,2.3-3,3.5c-0.2,1.2,0.2,2.6,1.3,4.2c2.8,4,4.9,4.5,6.3,4.5l0,0c1.4,0,2.9-0.6,4.3-1.2c1-0.4,2.1-0.9,3.2-1.1c10.2-2,16.7-7.1,23-12.1c2.9-2.3,5.6-4.4,8.5-6.2c0.2-0.1,0.4-0.2,0.7-0.4c2.1-1.2,7.6-4.3,8.3-8.2c0.3-1.5-0.2-3.1-1.5-4.7c-0.5-0.6-1.6-0.9-3.2-0.9C184.8,708.8,178.5,711,176.4,711.8L176.4,711.8z M840.9,645.6c-1.9-0.3-5.5-0.8-9.4-0.8c-5.5,0-12.4,1-13.7,5.9c-1.2,4.4,8.1,8.1,11.4,9c27.7,8,48.1,16.7,60.6,25.9c0.3,0.2,0.9,0.4,1.5,0.4c2.3,0,6.1-1.7,9-4.9c2.4-2.6,3.6-5.7,3.3-8.6c-0.4-4.2-4.7-9.4-8.3-11.3c-14.4-7.7-42.7-14.5-53.3-15.6C841.7,645.7,841.3,645.7,840.9,645.6L840.9,645.6z M887.6,688.2c-14.2-7.6-41.1-18-57.2-22.9c-7.8-2.4-16.8-4.9-24.1-4.9c-9.4,0-11.2,4.1-11.8,7.3c-1.1,5.9,14.2,13.8,27.5,16.3c29.9,5.7,48.6,19,54.7,23.4l0.7,0.5c0.8,0.6,3.8,2.5,7.3,2.5c4.3,0,7.5-2.9,9.6-8.6C896.4,695.9,890.9,689.9,887.6,688.2L887.6,688.2z M874.6,710.4c-22.2-12.8-46.9-21.1-60.5-23.3c-0.2,0-0.5-0.1-0.8-0.2c-1.1-0.2-2.9-0.6-4.7-0.6c-4.7,0-7.5,2.3-8.6,7.2c-0.5,2.1,2,6.8,23.4,14.2c1.1,0.4,1.8,0.6,2.1,0.8c8.1,3.7,14.3,7.8,20.2,11.7c6.5,4.3,13.2,8.8,22.7,12.9c0.6,0.3,1.4,0.4,2.2,0.4c4.5,0,10.9-3.8,11-12.2C881.7,717.2,878,712.4,874.6,710.4L874.6,710.4z M827,714.9l-0.4-0.2c-5.9-2.6-10.4-4-13.3-4c-0.8,0-1.9,0.1-2.5,0.7c-1.4,1.5-2,3-1.8,4.6c0.5,3.9,5.7,7.4,7.7,8.8c0.3,0.2,0.5,0.3,0.7,0.5c2.8,2,5.4,4.3,8.1,6.8c5.9,5.4,12.1,11,22.1,13.7c1.1,0.3,2.1,0.8,3.1,1.3c1.5,0.7,3,1.5,4.6,1.5c2,0,4.1-1.3,6.3-4.1c1.2-1.5,1.7-2.9,1.6-4.1c-0.2-1.3-1.1-2.5-2.7-3.7c-2.4-1.7-4.5-3.3-6.5-4.8C842.4,723.4,836.7,719.2,827,714.9L827,714.9z"/><path d="M105.4,535.4l147.4,385.8l254.5,17l259.6-21.8l144.2-374.8l-140.9-6.2l-65.7,30.3l-56.1,10.5l-27.2,8.7l-51.4,15.7l-40.4,16.4l-13.4,16l-4.4-0.8l-64.7-31.6l-106-32.6l-147.4-32.6H105.4z"/><path d="M230.9,276c0,70.7,27.8,135,73.5,182.7C154.8,517.2,51.7,646,51.7,830.7c0,167.3,886.4,192.1,895.9,0c9.3-185-98.6-314.4-252-372.7c45.1-47.6,72.8-111.4,72.8-182.1c0-146.9-120.4-266-268.8-266C351.3,10,230.9,129.1,230.9,276L230.9,276z M290.7,276c0-114.4,93.5-206.9,209.1-206.9c115.6,0,209.1,92.5,209.1,206.9c0,82.8-49.3,154.3-120.4,187.4C760.1,503,888,625.9,888,808c0,140.4-776.5,133-776.5,0c0-182.1,127.8-305,299.5-344.6C339.9,430.3,290.7,358.8,290.7,276L290.7,276z"/><path d="M110.4,551.4l23,49.1l44.3-62.2l-37.4-2.9L110.4,551.4z"/><path d="M882.2,616.9l33.6-70.5l-33.6-11h-36.8l-28.8,6.2L882.2,616.9z"/></g>
</svg>