<svg width="284" height="225" viewBox="0 0 284 225" fill="none" xmlns="http://www.w3.org/2000/svg">
<path fill-rule="evenodd" clip-rule="evenodd" d="M206.252 70.785C207.871 70.7022 209.484 71.0639 211.104 70.9063C209.697 69.6812 208.291 68.4565 206.885 67.2318C206.264 68.3228 206.218 69.5641 206.252 70.785ZM167.82 45.6034C163.627 45.6219 158.513 47.7278 155.6 50.8035C154.057 52.4335 152.782 54.6225 151.477 56.4537C150.601 57.6826 149.747 58.8685 148.684 59.948C147.134 61.522 147.578 61.8818 149.324 63.0667C149.877 62.0314 152.806 56.4957 154.034 56.7447C155.9 57.1236 152.296 62.9705 151.903 63.6989C150.737 65.8542 148.855 68.8646 149.701 71.1377C150.817 74.138 149.199 75.8482 147.793 78.4049C149.269 78.4476 149.414 77.8723 149.923 76.6138C150.576 74.9966 151.288 73.6455 152.669 72.5271C153.739 71.6614 155.488 71.2969 155.991 70.2514C156.612 68.9592 156.222 66.4076 156.272 64.9698C156.349 62.7853 156.354 57.6212 158.762 56.6508C161.284 55.6336 165.818 56.5922 168.284 57.3455C167.976 55.4203 167.005 54.1628 167.018 52.0238C167.033 49.7844 167.649 47.7867 167.82 45.6034ZM135.61 81.3284C137.803 80.6341 139.882 79.9025 142.139 79.4294C144.5 78.934 144.658 78.3674 145.989 76.3423C146.998 74.8071 148.222 73.6107 147.936 71.7308C147.753 70.5249 147.093 69.9375 147.291 68.5813C147.415 67.7408 147.807 66.8233 148.09 66.0239C148.438 65.0434 149.158 63.9314 147.483 63.8826C146.559 63.8559 146.513 64.3439 145.887 65.1631C144.732 66.6762 143.403 68.0503 142.174 69.5014C140.039 72.0212 137.775 74.7027 135.392 77.035C132.769 79.601 130.505 82.6964 128.809 85.9819C128.496 86.5887 126.592 90.1623 127.404 90.863C128.15 91.5067 132.3 90.0056 133.056 89.8302C136.322 89.0722 140.028 88.8016 143.114 87.4247C144.686 86.723 148.154 85.8857 149.396 84.8004C150.55 83.7916 150.498 81.3472 149.828 79.9251C147.954 81.0912 134.401 85.4913 135.61 81.3284ZM176.411 61.2731C178.6 59.2964 181.186 57.7106 183.888 56.5355C186.305 55.4846 189.308 54.3131 191.997 54.4955C195.347 54.7225 193.947 57.4212 193.935 59.7191C193.92 62.7687 192.583 67.1614 196.224 68.7434C197.413 64.5213 199.918 54.5369 205.92 60.0693C207.453 56.0096 212.924 54.6356 216.776 53.89C216.078 51.8388 213.957 49.9821 212.487 48.4425C210.648 46.5168 209.196 44.2593 207.354 42.3701C203.715 38.6387 197.122 39.837 192.514 40.7672C190.976 41.0773 186.518 41.467 185.773 42.5965C185.305 43.3048 185.566 45.0354 185.22 45.9017C184.743 47.0949 183.928 48.2012 183.273 49.3034C180.887 53.3252 178.459 57.3731 174.375 59.6762L176.411 61.2731ZM189.767 82.9399C187.606 83.769 186.016 85.1554 184.1 86.3228C181.776 87.7386 179.051 89.0645 176.965 90.813C176.202 91.4526 175.773 92.5573 174.72 92.6289C173.804 92.6913 172.408 91.627 171.596 91.2549C170.233 90.6293 168.932 89.6815 167.562 89.1241C166.437 88.666 165.939 88.7596 164.965 87.8685C164.419 91.1192 154.483 88.0808 152.399 88.0312C150.471 87.9853 147.825 88.2139 146.03 88.9888C144.32 89.727 142.983 91.3526 141.52 92.4598C139.513 93.9784 137.599 95.5142 136.121 97.616C134.095 100.498 137.152 99.6825 139.191 99.5083C143.846 99.1104 148.374 100.219 152.86 101.289C156.871 102.245 160.832 103.392 164.671 104.942C166.83 105.815 169.103 106.616 171.134 107.75C172.204 108.348 173.941 109.811 175.169 109.389C176.296 109.002 177.418 105.773 178.101 104.483C179.428 101.979 180.823 99.5175 182.193 97.0382C184.78 92.3548 187.342 87.7106 189.767 82.9399ZM163.177 144.925C164.508 144.16 166.679 144.366 168.152 144.046C169.816 143.684 171.489 143.094 173.075 142.479C174.682 141.856 176.2 141.219 177.669 140.439C178.34 140.083 179.235 139.732 179.855 139.238C180.356 138.839 180.538 138.099 180.999 137.738C182.202 136.794 182.555 137.386 182.717 135.566C182.892 133.59 181.782 132.47 180.402 130.991C179.166 129.667 177.56 128.523 176.007 127.591C175.32 127.18 174.587 126.716 173.886 126.323C172.825 125.728 171.403 124.738 170.847 126.016C172.006 126.312 172.262 127.792 171.215 128.324C170.641 128.616 169.771 128.187 169.123 128.497C168.123 128.977 167.161 130.315 166.305 131.035C163.495 133.401 160.808 134.288 157.13 134.478C149.445 134.874 141.398 133.998 133.86 132.859C131.921 132.565 129.984 132.883 128.026 132.813C126.121 132.745 124.135 132.329 122.262 132.007C118.655 131.387 114.853 130.877 111.302 129.966C107.008 128.863 102.699 127.437 98.6668 125.59C94.7994 123.817 90.428 120.889 86.084 120.664C87.9378 122.479 90.7155 123.178 92.9453 124.373C94.7675 125.35 97.6175 125.977 98.769 127.586C99.5184 128.634 99.8944 130.558 100.461 131.786C101.087 133.145 101.664 134.526 102.244 135.905C102.826 137.293 103.433 138.682 103.906 140.112C104.199 140.999 104.325 142.837 105.016 143.444C106.119 144.412 109.811 144.841 111.298 145.163C114.073 145.764 117.239 145.684 120.07 145.726C121.24 145.743 122.419 145.903 123.537 145.924C125.107 145.954 124.957 145.683 124.935 144.32C124.922 143.501 124.938 142.013 126.033 142.687C126.779 143.146 126.265 145.181 126.127 145.904C132.376 146.526 138.896 146.839 145.115 146.631C151.231 146.426 157.135 145.637 163.177 144.925ZM191.396 130.581C192.499 122.664 193.843 114.614 195.346 106.799C196.866 98.9015 198.694 91.0759 200.749 83.2083C199.392 82.8833 198.034 82.5592 196.676 82.2348C196.626 83.8925 196.065 85.3324 195.826 86.9825C195.496 89.26 194.865 91.4717 194.488 93.7419C193.771 98.0569 192.442 102.279 191.271 106.487C190.078 110.777 189.679 115.197 188.583 119.509C187.68 123.061 187.218 126.973 186.714 130.625C185.489 139.484 183.745 148.36 182.418 157.223C181.173 165.533 181.049 174.012 181.12 182.399C181.164 187.52 181.945 192.626 181.905 197.754C181.895 199.021 182.001 200.285 182.067 201.55C182.114 202.443 181.634 204.918 182.041 205.666C182.298 206.14 183.405 206.576 183.796 207.234C184.415 208.274 184.546 209.518 185.541 210.305C186.347 207.052 185.966 202.76 185.79 199.44C185.619 196.242 185.95 192.936 186.016 189.689C186.143 183.319 186.481 177.042 186.807 170.668C187.165 163.678 188.183 156.519 189.178 149.582C190.082 143.274 190.686 136.855 191.396 130.581ZM161.884 31.2881C161.447 31.2473 161.01 31.2069 160.573 31.1661C160.638 32.0875 160.443 33.5796 161.093 34.06C161.585 34.4242 162.582 34.3048 163.178 34.421C165.134 34.8034 167.4 35.123 169.341 34.4268C170.095 34.1562 169.611 33.7324 170.649 33.9085C171.9 34.1211 171.443 34.3192 171.805 35.0995C172.083 35.7018 172.226 36.7269 172.542 37.4499C172.965 38.4177 173.822 40.1496 173.455 41.267C173.1 42.3533 171.771 42.6815 171.207 43.9116C170.787 44.8263 170.886 46.1558 170.668 47.163C170.377 48.5065 170.009 49.8449 169.846 51.2132C169.642 52.9371 169.712 54.9597 171.847 55.2271C173.83 55.4757 175.247 54.8387 176.576 53.3949C179.115 50.6389 182.014 46.7485 183.505 43.2816C183.68 42.8767 184.108 42.2008 184.049 41.7672C183.93 40.9095 183.879 41.7777 183.607 41.182C183.348 40.6125 182.94 40.0958 182.701 39.4638C181.84 37.1936 181.229 34.8139 180.884 32.4106C180.727 31.3218 180.675 30.2464 180.702 29.1471C180.711 28.7717 180.936 27.6444 180.802 27.3875C180.665 27.1271 179.95 27.0071 179.728 26.7486C179.315 26.2694 178.606 24.9167 178.149 24.5579C177.586 24.1173 176.328 24.4663 176.099 23.5898C175.734 22.1871 184.384 19.9023 180.343 18.0304C177.325 16.6328 172.697 23.6977 171.642 18.1385C171.46 17.1755 171.808 15.8684 171.385 14.9859C170.918 14.0106 169.648 13.646 168.76 13.1713C167.628 12.5662 166.483 11.9442 165.383 11.2815C164.627 10.8272 163.54 9.62093 162.736 9.51046C163.052 11.1478 162.446 12.7707 162.436 14.4048C164.177 13.9337 165.375 13.9237 167.093 14.7614C167.911 15.16 170.994 17.4225 169.432 18.5107C168.167 17.7627 166.813 17.1139 165.402 16.6741C164.846 16.5004 164.151 16.2642 163.559 16.2522C162.186 16.2246 162.379 16.3683 161.863 17.4041C161.366 18.4018 161.473 21.0041 160.381 21.6412C159.253 22.3001 160.123 21.3779 159.16 21.5908C158.61 21.7125 158.011 22.1212 157.508 22.352C158.197 23.1005 159.589 23.7837 160.046 24.6149C160.713 25.8269 160.482 28.3334 160.586 29.6593C161.459 29.3467 162.378 29.334 163.264 29.1019C164.096 28.8832 165.25 27.9376 165.337 29.3279C165.433 30.8771 162.984 31.2881 161.884 31.2881ZM173.25 72.0782C173.318 70.7395 173.392 69.4011 173.541 68.0678C173.642 67.1726 174.492 64.576 174.012 63.7897C173.489 62.9343 171.738 62.8798 170.895 62.6745C169.28 62.2807 167.73 61.9582 166.088 61.6981C164.578 61.459 163.155 61.4087 161.633 61.3393C159.976 61.2645 159.565 60.8248 159.199 62.6509C158.911 64.087 158.524 65.5827 158.471 67.0529C158.42 68.433 158.837 69.6309 157.47 70.5609C160.473 70.5609 164.384 67.887 167.125 70.2778C171.045 73.697 164.223 74.682 162.424 75.4369C163.919 76.1637 166.139 76.7345 166.843 78.3944C167.633 80.2552 166.487 81.0464 164.733 81.1953C164.898 81.9123 165.529 82.3784 165.717 83.2408C165.993 84.505 165.099 84.0864 166.24 85.0647C167.741 86.3521 170.832 87.213 172.673 88.0331C173.104 88.226 173.541 88.4068 173.982 88.5762C174.672 89.19 175.181 89.0731 175.51 88.225C176.455 87.6272 177.296 86.2932 178.133 85.5174C179.997 83.7906 182.055 82.2755 184.27 81.0288C183.352 80.6484 182.254 81.508 181.372 81.0897C180.66 80.7515 180.929 80.1362 180.502 79.6755C180.673 79.0747 180.492 78.8551 179.96 79.0165C179.694 79.0448 179.447 78.9996 179.218 78.8815C178.772 78.3292 178.572 78.1483 178.543 77.2954C178.511 76.3907 179.035 76.071 179.237 75.3468C179.89 74.9014 179.875 74.4636 179.192 74.0345C178.911 73.5751 178.758 73.0769 178.732 72.5392C178.602 70.5434 180.424 69.7389 181.813 68.6832C179.326 68.4097 179.421 65.4919 181.142 64.2166C182.926 62.8941 186.703 63.4357 188.861 63.734C189.309 63.7954 190.521 64.3742 190.975 64.0052C191.253 63.7792 191.057 61.8671 191.07 61.53C191.099 60.764 191.285 59.8506 191.163 59.0885C190.908 57.4929 191.449 58.2964 190.3 58.2521C187.566 58.1461 184.085 60.5325 181.68 61.6576C178.988 62.9171 177.258 63.1106 177.23 66.2334C177.203 69.19 176.374 72.1361 176.012 75.0459C175.854 76.3165 175.741 82.9183 173.415 80.4819C172.513 79.537 173.091 78.084 173.158 76.9185C173.249 75.3146 173.195 73.6862 173.25 72.0782ZM22.8594 171.054C24.1904 171.29 26.3578 170.526 27.8099 170.446C30.3485 170.307 32.9628 170.065 35.4502 169.537C37.396 169.123 39.6134 168.759 40.6627 166.876C41.6009 165.193 41.9323 163.084 42.4375 161.247C42.7059 160.272 43.3983 158.858 43.398 157.849C43.3977 156.537 43.221 156.796 41.853 156.077C40.1215 155.169 38.4367 153.903 36.5689 153.387C36.0038 153.277 35.4384 153.169 34.8727 153.063C34.1408 152.638 33.7278 152.847 33.632 153.689C32.9176 154.442 32.499 155.83 31.8995 156.711C30.5331 158.719 28.9104 160.088 26.7905 161.246C22.9756 163.33 19.4211 164.938 15.3353 166.3C13.0835 167.051 11.0072 168.105 8.80623 168.932C7.04296 169.595 4.60946 169.797 3.255 171.273C1.72674 172.939 4.07576 173.544 5.38138 174.67C6.4512 175.592 6.47202 175.804 7.93539 175.356C9.02561 175.022 9.99215 174.385 11.039 173.952C14.6253 172.471 18.9658 171.485 22.8594 171.054ZM104.819 197.469C103.482 197.179 102.146 196.891 100.809 196.602C102.123 199.056 104.888 202.646 102.904 205.486C102.162 206.547 100.929 206.85 99.8269 207.388C98.4933 208.04 97.2619 208.874 96.0012 209.65C90.8024 212.852 85.5189 216.098 80.0409 218.844C81.7559 219.398 84.3925 219.781 86.1588 219.299C88.2154 218.737 90.1198 217.447 92.2312 216.883C96.0193 215.872 100.006 215.011 103.855 214.493C107.001 214.069 114.875 215.027 114.493 210.295C114.13 205.804 111.447 201.519 110.648 197.078C108.689 197.513 106.82 197.437 104.819 197.469ZM184.485 125.577C186.008 118.1 186.918 110.496 188.715 103.073C189.612 99.3695 190.243 95.6154 191.119 91.9113C191.527 90.1877 191.834 88.4476 192.231 86.7275C192.633 84.986 193.498 83.379 193.696 81.5786C192.24 81.9387 191.903 85.2732 191.462 86.5275C190.652 88.8286 189.769 91.04 188.729 93.243C187.076 96.745 185.321 100.124 183.456 103.519C181.489 107.1 179.412 110.544 176.955 113.814C176.148 114.889 175.052 115.731 174.532 116.91C173.713 118.764 173.369 120.974 172.588 122.903C173.138 123.183 174.56 123.252 175.235 123.386C176.491 123.633 177.37 123.854 178.576 124.451C180.701 125.502 182.485 126.749 183.905 128.641C184.262 127.67 184.354 126.605 184.485 125.577ZM125.271 182.624C125.246 175.423 125.143 168.161 125.262 161.013C125.294 159.029 125.456 156.887 125.744 154.918C125.924 153.68 126.988 151.048 126.289 150.455C125.691 149.948 122.538 150.282 121.764 150.264C120.263 150.229 118.767 150.162 117.263 150.049C117.263 152.718 118.305 155.748 118.79 158.388C119.241 160.851 119.613 163.327 119.985 165.801C120.792 171.158 121.022 176.589 121.897 181.96C122.691 186.83 123.738 191.68 124.315 196.55C124.632 199.223 125.273 201.745 125.771 204.416C126.031 205.809 126.98 211.547 128.175 212.111C128.427 210.053 127.396 207.568 127.211 205.487C127.02 203.338 126.872 201.174 126.524 199.014C126.115 196.479 125.908 193.88 125.751 191.313C125.655 189.742 125.626 188.176 125.49 186.606C125.392 185.467 124.961 183.741 125.271 182.624ZM162.797 86.333C162.847 85.5489 160.818 85.5804 160.44 84.6791C159.673 82.8489 161.421 83.1784 162.495 82.989C162.112 81.9712 154.937 82.3418 156.609 79.5943C157.769 77.688 162.165 80.6057 163.341 78.7943C164.113 77.6046 162.011 77.4406 161.177 77.3215C159.923 77.1417 156.968 77.7224 157.065 76.0949C157.188 74.0498 162.933 72.6382 164.544 72.0374C164.366 70.6369 157.451 72.6277 156.451 73.1953C154.186 74.4802 152.45 76.7854 152.118 79.3479C151.731 82.329 153.243 84.6769 156.22 85.4085C157.462 85.7135 158.38 85.7472 159.528 86.206C160.284 86.5075 162.731 87.2594 163.249 86.4986C163.098 86.4435 162.948 86.3881 162.797 86.333ZM203.389 67.7902C203.503 66.5171 204.575 64.1205 203.34 63.2841C201.612 62.1135 200.896 64.0425 200.505 65.201C200.026 66.6158 198.013 70.0792 199.773 70.9607C200.182 71.1657 202.122 70.927 202.465 70.792C203.418 71.0403 203.725 70.6834 203.389 69.7201V67.7902ZM161.219 170.6C161.11 167.12 162.669 162.937 163.551 159.529C164.552 155.668 165.079 151.73 166.14 147.911C164.96 148.053 163.77 148.169 162.605 148.405C161.015 148.729 160.986 148.678 161.1 150.237C161.271 152.579 161.047 154.876 160.926 157.217C160.684 161.905 161.274 166.67 160.882 171.328C161.232 171.417 161.344 171.174 161.219 170.6ZM205.24 79.4087C209.06 79.9932 212.722 81.2046 216.198 82.8317C218.114 83.7285 220.224 84.6925 222.366 85.0507C224.744 85.4489 227.267 85.2621 229.697 85.4155C230.553 85.4696 232.805 85.8857 233.64 85.3821C234.467 84.8829 234.402 84.0373 234.441 83.0291C234.541 80.436 233.368 77.8971 232.312 75.5706C231.407 73.5745 230.722 72.0505 229.317 70.3336C227.513 68.1283 225.942 65.7485 224.253 63.4468C222.979 61.7121 221.691 60.0018 220.393 58.269C219.464 57.028 219.508 56.6011 218.108 56.7399C216.729 56.8768 215.341 57.6918 214.043 58.1235C212.115 58.7647 209.782 59.1165 208.024 60.1416C206.888 60.8044 206.837 60.9264 206.85 62.083C206.863 63.1603 207.21 64.4745 207.854 65.3172C209.193 67.0669 211.412 67.993 213.317 68.8659C214.419 69.3705 215.371 70.0865 216.352 70.7831C217.408 71.5338 219.541 71.976 220.349 72.8317C222.703 75.3238 218.418 74.8313 217.22 74.7562C214.636 74.5935 212.066 74.6184 209.463 74.6164C206.622 74.6145 203.803 74.4824 201.002 74.5747C199.361 74.6289 197.478 73.7967 196.415 72.4096C195.9 71.7375 195.7 71.1024 195.027 70.4052C194.145 69.4925 193.378 68.5307 192.305 67.8242C190.549 66.6683 187.359 66.0144 185.269 66.4458C186.017 66.5502 189.537 67.7485 187.988 69.2546C187.799 69.438 185.535 69.558 185.043 69.7841C184.155 70.1919 183.035 70.7847 182.514 71.6458C184.031 71.3918 189.656 71.0976 186.786 74.0077C186.082 74.7221 184.06 75.435 185.781 76.1946C186.176 76.369 186.967 76.122 187.476 76.2792C188.232 76.5135 188.85 77.1398 189.559 77.4737C191.569 78.4218 194.339 79.0063 196.437 78.7987C199.337 78.5109 202.36 79.0289 205.24 79.4087ZM128.325 167.093C128.424 171.273 128.273 175.478 128.362 179.678C128.457 184.163 129.033 188.558 129.307 192.998C129.553 196.977 130.09 200.88 130.527 204.84C130.778 207.121 131.068 209.302 131.453 211.566C131.815 213.684 131.877 215.551 129.344 216.12C124.503 217.21 123.75 210.245 122.814 207.31C121.418 202.93 120.522 198.332 119.83 193.791C118.541 185.335 116.828 176.996 116.159 168.468C115.748 163.216 115.151 158.019 114.812 152.772C114.746 151.744 115.008 150.16 114.105 149.702C113.562 149.427 112.066 149.425 111.381 149.226C109.471 148.67 107.709 147.852 105.846 147.003C107.169 153.918 107.605 160.799 108.597 167.774C109.124 171.476 110.131 175.311 111.004 178.954C111.908 182.729 112.109 186.794 113.152 190.487C113.612 192.114 114.001 192.777 113.334 194.448C112.516 196.499 113.059 196.989 114.085 199.003C115.973 202.709 117.413 207.081 117.093 211.258C116.832 214.67 114.255 216.456 111.062 217.376C107.068 218.527 102.885 218.391 98.8671 219.699C95.3664 220.837 91.8093 221.678 88.4096 223.182C87.0387 223.788 85.7363 224.507 84.2142 224.618C82.1264 224.77 80.7187 223.558 78.7471 223.306C77.5147 223.148 75.7102 223.736 75.0003 222.444C74.4374 221.42 75.0741 219.185 75.7809 218.361C77.7655 216.044 81.7403 214.025 84.4167 212.658C87.5016 211.082 90.4866 209.11 93.3448 207.077C95.0773 205.844 96.8439 204.661 98.5751 203.425C99.7203 202.608 100.155 202.603 100.039 201.304C99.9453 200.268 99.4786 199.263 99.3968 198.203C99.3344 197.39 99.619 196.283 99.2351 195.753C98.9527 195.362 97.8925 195.086 97.4758 194.79C95.9515 193.709 95.6051 192.372 94.913 190.729C93.3407 186.995 91.5343 183.367 90.016 179.604C86.756 171.524 84.7669 163.027 82.0644 154.782C79.3035 146.359 76.8347 137.516 75.3142 128.777C73.2795 129.396 71.3592 132.136 69.7387 133.491C67.5497 135.323 65.3066 137.095 63.1599 138.978C59.641 142.063 56.0779 145.064 53.1701 148.759C51.769 150.539 50.6219 152.455 49.3536 154.324C48.621 155.405 47.9378 156.627 47.1445 157.655C47.0171 157.82 47.0133 158.159 46.8761 158.299C46.574 158.608 45.9968 158.197 45.8032 158.4C44.6075 159.65 44.6231 163.2 44.2506 164.85C43.7371 167.124 43.1605 169.738 41.3853 171.305C38.643 173.725 33.5859 174.1 30.1154 174.226C25.6616 174.387 21.3411 175.628 17.1155 176.961C15.1446 177.582 13.2252 178.31 11.2469 178.913C10.1091 179.261 8.81104 179.954 7.59589 179.821C6.13048 179.66 4.9734 178.427 3.89999 177.51C2.18276 176.044 0.592876 174.599 0.649735 172.194C0.710191 169.648 2.08948 167.726 4.26232 166.461C8.4631 164.016 13.1615 162.449 17.6895 160.759C19.4246 160.111 20.9101 159.394 22.569 158.522C24.9134 157.289 27.6118 156.283 29.692 154.656C30.3052 154.175 32.5591 152.704 32.7511 151.946C32.7763 151.847 32.2131 150.688 32.2105 150.504C32.2051 150.032 32.485 149.52 32.6572 149.115C33.7406 146.568 35.5578 144.116 36.9471 141.714C39.4914 137.314 42.0456 132.892 44.9955 128.754C50.8779 120.506 57.4857 112.429 64.6176 105.228C68.0944 101.717 71.0988 97.7357 74.6246 94.2739C76.0216 92.9027 77.4962 91.7859 79.2173 90.8958C81.136 89.9037 83.2897 89.7092 85.489 89.4061C90.8183 88.6726 95.269 90.2492 100.272 91.621C105.002 92.9176 109.738 94.0115 114.494 95.3623C119.718 96.8456 124.888 98.2683 130.095 99.8849C132.878 100.749 135.74 101.279 138.535 102.108C139.881 102.506 144.97 105.005 146.092 104.184C142.557 102.525 138.935 101.014 135.153 100.012C134.039 99.7175 133.328 100.044 133.369 98.7646C133.392 98.0671 134.176 97.1254 134.458 96.5511C135.134 95.1761 135.899 93.8326 136.56 92.4538C134.162 93.1348 127.717 95.4913 125.91 93.0552C124.019 90.5051 125.598 85.5059 126.783 83.0094C129.877 76.4922 135.138 71.0537 140.265 66.1408C141.374 65.0787 143.765 63.6916 144.356 62.3386C144.536 61.9273 144.144 61.323 144.55 60.7885C144.791 60.4708 145.76 60.2537 146.147 59.9111C147.557 58.6631 148.681 56.0373 149.655 54.4009C150.676 52.6879 151.595 50.8325 152.877 49.2951C154.974 46.7813 157.139 44.1167 160.534 43.5287C162.199 43.2405 163.968 43.3943 165.564 42.819C167.494 42.1234 169.328 41.0276 171.277 40.3072C170.794 39.3129 170.402 37.7323 169.464 37.6237C168.56 37.519 167.236 38.2955 166.202 38.2897C164.692 38.2815 163.403 38.0398 161.946 37.7523C160.333 37.4333 159.802 37.4913 159.214 35.7419C158.598 33.9094 158.753 31.7809 158.758 29.8774C158.761 28.9472 158.945 27.7928 158.866 26.8797C158.747 25.5041 158.48 25.4513 157.402 24.5764C156.054 23.4835 154.393 22.0372 156.044 20.138C156.935 19.1118 158.768 19.9099 159.558 18.8073C160.362 17.6842 160.323 14.8631 160.569 13.5439C158.089 14.763 158.998 10.2057 158.997 9.10904C158.997 7.51336 157.928 4.64377 159.467 3.31621C160.182 2.69986 160.714 3.20975 161.532 2.85557C162.465 2.45132 163.053 1.39115 164.046 0.98012C166.019 0.16286 168.034 1.147 170.06 0.984513C172.385 0.7984 174.668 0.439005 177.005 0.812026C178.112 0.988111 178.578 1.40876 179.515 1.88022C180.416 2.33366 181.33 2.45775 182.308 2.7495C183.179 3.00925 183.943 3.14051 184.531 3.89935C184.996 4.49968 184.807 5.50945 185.276 6.02694C185.74 6.53683 186.656 6.46278 187.208 7.0683C187.738 7.64943 188.055 8.60998 188.331 9.33317C188.703 10.3073 188.747 10.6731 189.402 11.4527C189.974 12.1331 190.797 12.6802 191.273 13.4563C192.397 15.2857 192.426 17.9312 192.067 19.9891C191.945 20.6899 190.93 22.5013 191.088 23.0976C191.24 23.6653 192.192 23.516 192.624 23.8747C192.996 24.1851 193.324 25.5671 193.618 25.6515C194.253 25.8336 195.036 24.5796 195.517 24.3914C196.353 24.0645 196.703 23.7293 197.167 24.9616C197.51 25.8759 197.032 27.1172 196.78 27.9899C196.459 29.1009 196.105 30.439 195.257 31.2791C194.259 32.2667 193.46 31.7268 192.359 32.2587C190.709 33.0559 191.196 35.5487 189.166 36.2608C187.231 36.9399 185.099 34.804 183.636 33.8225C183.939 36.2058 185.08 38.5021 184.533 40.9449C188.982 39.2015 193.383 36.7272 198.233 36.1822C200.705 35.9039 203.204 35.5744 205.538 36.6012C208.27 37.8026 209.944 40.453 211.793 42.6551C215.269 46.7938 218.835 50.8162 222.171 55.0883C225.231 59.007 227.81 63.5474 231.178 67.2165C234.593 70.9375 237.17 76.9745 236.796 82.1269C236.763 82.592 236.402 83.6486 236.459 84.15C236.503 84.5343 236.852 85.0214 236.846 85.3311C236.827 86.3738 236.483 86.9742 235.489 87.5523C233.766 88.5558 231.199 89.0636 229.252 89.3125C226.665 89.6436 223.497 89.6793 220.909 89.3259C218.24 88.9608 215.893 87.4667 213.439 86.5638C211.285 85.7714 209.123 85.2767 206.861 84.7711C205.613 84.4923 204.231 83.7202 203.46 84.4674C202.752 85.1541 202.604 88.6777 202.44 89.6147C200.649 99.77 198.522 109.581 196.638 119.685C194.503 131.137 193.043 142.584 191.558 154.133C190.208 164.632 189.767 175.249 189.465 185.738C189.321 190.741 189.3 195.69 189.33 200.698C189.348 203.502 190.749 212.862 186.593 213.22C184.15 213.431 182.196 209.929 181.541 208.019C180.558 205.15 180.046 202.06 179.889 199.045C179.571 192.942 179.156 186.835 178.909 180.73C178.643 174.116 178.982 167.38 179.526 160.788C180.073 154.151 181.452 147.611 181.874 140.965C180.606 142.776 180.2 143.116 178.087 143.904C175.875 144.73 173.748 145.706 171.517 146.476C170.758 146.738 169.573 146.902 168.951 147.331C167.802 148.121 168.557 147.224 168.19 148.763C167.799 150.408 167.725 152.382 167.621 154.072C167.132 162.002 164.935 169.876 163.922 177.765C163.677 179.669 164.026 187.755 160.748 185.207C158.224 183.244 158.274 177.08 157.915 174.193C157.437 170.345 157.703 166.388 157.779 162.516C157.865 158.106 157.939 153.481 158.991 149.176C157.108 148.853 154.49 149.731 152.595 149.879C150.954 150.006 149.319 150.088 147.687 150.177C143.797 150.391 139.789 150.561 135.832 150.485C135.112 150.471 130.407 149.812 129.805 150.343C129.61 150.516 129.55 152.888 129.514 153.178C129.375 154.268 129.187 155.357 129.047 156.441C128.6 159.907 128.197 163.628 128.325 167.093Z" fill="#212121"/>
<path fill-rule="evenodd" clip-rule="evenodd" d="M198.205 200.027C201.175 201.188 204.326 201.609 207.321 202.666C209.998 203.612 212.484 204.882 215.12 205.843C215.274 204.62 215.356 202.549 214.905 201.397C214.265 199.765 212.583 199.725 210.926 199.143C206.894 197.729 202.652 197.43 198.649 195.778C199.335 197.097 199.029 198.844 198.205 200.027ZM249.464 195.76C243.051 195.948 236.922 197.44 230.602 198.363C227.526 198.812 224.448 199.213 221.369 199.632C220.185 199.793 218.025 199.603 217.164 200.629C216.451 201.479 217.233 204.378 216.916 205.623C218.212 205.719 220.513 204.508 221.92 204.307C224.111 203.996 226.273 203.56 228.487 203.421C231.993 203.2 235.437 203.012 238.937 202.622C242.495 202.225 245.94 201.488 249.527 201.218C251.27 201.087 251.972 201.414 252.075 199.573C252.115 198.853 252.214 197.649 252.012 196.939C252.334 196.066 252.048 195.643 251.153 195.668C250.585 195.604 250.022 195.634 249.464 195.76ZM237.06 189.885C238.795 189.722 240.536 189.489 242.275 189.391C242.628 189.371 244.416 189.479 244.708 189.151C245.121 188.687 244.661 186.991 244.585 186.466C244.327 184.682 244.042 183.644 242.096 183.64C240.453 183.636 238.752 183.984 237.116 184.144C229.687 184.872 222.297 185.179 214.95 186.562C215.397 188.466 215.905 190.431 215.37 192.378C218.894 192.56 222.763 191.882 226.208 191.186C229.728 190.475 233.463 190.122 237.06 189.885ZM225.303 171.955C222.649 171.967 219.844 173.136 217.225 172.875C217.186 173.363 218.024 172.958 218.256 173.414C218.75 173.415 218.923 173.577 218.772 173.899C218.781 174.119 218.669 174.248 218.434 174.285C218.319 174.295 218.203 174.305 218.088 174.315C217.582 174.331 217.499 174.673 217.84 175.34C217.693 176.167 217.913 177.218 217.945 178.048C222.651 177.408 227.223 176.741 231.963 176.456C234.2 176.321 236.436 176.321 238.671 176.137C241.13 175.934 243.814 176.369 246.217 175.909C247.503 175.662 247.368 175.679 247.274 174.008C247.217 172.993 247.238 171.788 246.412 171.047C245.031 169.81 241.888 170.525 240.237 170.569C235.265 170.7 230.209 171.162 225.303 171.955ZM228.02 195.82C235.13 195.174 242.186 193.76 249.336 193.76C248.831 193.255 247.73 193.124 247.101 192.849C246.383 192.535 245.706 191.866 245.005 191.591C243.598 191.041 242.166 191.806 240.721 192.137C237.236 192.935 233.659 192.962 230.168 193.745C226.558 194.554 222.902 195.3 219.226 195.711C217.476 195.907 215.598 196.304 213.868 195.842C213.728 195.742 213.587 195.641 213.446 195.541C213.295 194.897 212.876 194.726 212.187 195.025C211.313 194.859 210.2 195.074 209.32 195.096C209.284 195.447 212.536 196.55 213.156 196.823C214.649 197.481 215.662 197.962 217.257 197.68C220.849 197.046 224.382 196.288 228.02 195.82ZM203.009 175.033C203.287 176.116 204.454 175.623 205.459 175.743C206.807 175.903 208.148 176.368 209.454 176.718C211.825 177.356 214.198 177.984 216.559 178.658C216.466 177.704 216.677 175.533 216.173 174.687C215.644 173.8 213.137 173.411 211.969 173.14C209.026 172.459 205.883 172.847 202.893 172.99C202.946 173.671 202.985 174.351 203.009 175.033ZM231.279 181.809C234.071 181.573 236.867 181.389 239.667 181.29C242.869 181.178 240.541 180.667 240.474 178.714C236.266 179.385 232.021 179.518 227.826 180.091C224.351 180.567 220.21 181.81 216.666 181.142C214.994 180.828 213.287 180.707 211.508 180.529C209.83 180.361 208.247 179.579 206.589 179.385C204.729 179.167 202.828 180.213 200.977 180.489C200.192 180.606 200.01 181.138 199.639 180.194C199.255 179.214 200.356 178.414 200.789 177.828C201.295 177.144 201.085 178.255 201.366 177.186C201.444 176.887 201.231 176.135 201.192 175.812C201.093 174.997 200.836 174.112 200.796 173.299C200.76 172.551 200.753 171.41 201.565 170.974C202.06 170.708 202.411 171.096 202.843 171.021C206.212 170.435 210.176 170.387 213.594 170.952C217.298 171.565 220.487 169.943 224.139 169.284C228.422 168.512 232.751 168.397 237.072 168.071C240.766 167.792 247.516 166.346 248.923 171.065C249.322 172.402 249.903 176.083 248.831 177.22C247.423 178.714 244.166 178.237 242.346 178.626C242.618 179.4 243.429 179.926 243.148 180.848C245.698 180.969 246.149 183.377 246.548 185.625C246.961 187.951 246.155 188.876 248.378 190.087C251.477 191.776 254.759 193.48 254.698 197.501C254.668 199.523 254.442 202.571 252.366 203.62C250.336 204.646 247.029 204.472 244.792 204.845C240.458 205.567 236.109 206.413 231.749 206.846C227.107 207.308 222.387 207.687 217.737 207.893C215.204 208.006 213.015 208.388 210.568 207.536C208.162 206.697 205.809 206.085 203.326 205.463C200.876 204.849 193.375 204.022 195.56 199.831C195.91 199.161 197.106 198.628 197.299 197.994C197.61 196.971 196.558 196.173 196.602 195.249C196.682 193.557 198.59 193.345 199.908 193.345C197.649 191.933 200.673 190.261 200.655 189.062C200.624 186.95 197.997 185.579 197.848 183.808C197.486 179.499 211.157 183.986 213.261 184.918C211.641 187.319 204.128 185.241 201.89 184.877C202.195 185.679 202.487 186.4 202.575 187.221C202.647 187.89 202.391 188.654 202.625 189.328C202.995 190.392 202.982 190.189 204.29 190.479C205.257 190.693 206.213 190.942 207.177 191.169C208.658 191.518 210.987 192.456 212.455 192.405C213.742 192.36 213.488 192.759 213.723 191.33C213.85 190.561 213.634 189.745 213.504 188.992C213.234 187.415 212.839 185.922 214.216 184.791C215.53 183.712 218.298 183.198 219.909 182.817C223.484 181.973 227.611 181.766 231.279 181.809Z" fill="#212121"/>
<path fill-rule="evenodd" clip-rule="evenodd" d="M248.292 154.89C244.409 154.239 240.464 154.079 236.535 154.276C236.748 155.248 236.961 156.22 237.174 157.192C240.855 156.244 244.589 155.689 248.292 154.89ZM216.718 162.431C215.161 162.317 216.245 163.013 216.629 164.033C217.102 165.285 217 166.868 217.109 168.186C221.665 166.449 226.966 165.432 231.81 164.847C234.107 164.57 236.438 164.491 238.748 164.372C239.431 164.337 241.897 164.623 242.396 164.164C242.767 163.822 242.507 161.937 242.151 161.521C240.212 159.261 232.717 161.213 230.006 161.415C225.56 161.747 221.195 162.542 216.718 162.431ZM223.189 156.375C227.223 156.762 231.119 156.725 235.153 157.33C234.848 154.765 235.213 154.111 232.304 153.975C229.711 153.854 227.127 153.755 224.547 153.757C218.744 153.76 212.955 153.649 207.146 153.649V156.255C212.519 155.705 217.806 156.699 223.189 156.375ZM203.79 165.958C206.336 165.947 208.742 166.908 211.289 167.157C212.813 167.306 212.334 167.495 213.391 168.26C215.038 169.452 215.512 168.817 215.306 167.198C214.606 161.719 207.669 162.947 203.672 162.643C203.935 163.949 203.331 165.057 202.441 165.958H203.79ZM231.31 158.924C227.648 158.983 223.981 159.191 220.345 159.115C218.717 159.081 216.608 158.759 215.013 159.036C213.844 159.24 212.867 159.835 211.585 160.056C213.468 161.07 214.422 160.385 216.402 160.154C218.379 159.924 220.386 159.928 222.372 159.808C225.633 159.611 229.109 158.829 232.322 159.042C232.381 158.589 232.044 158.55 231.31 158.924ZM202.264 170.79C200.583 170.786 202.895 168.875 203.199 168.686C201.339 168.686 200.888 167.57 201.427 165.778C201.935 164.089 202.311 164.606 201.033 163.2C200.071 162.142 199.926 161.362 201.059 160.178C202.213 158.974 204.55 159.315 205.572 158.321C207.313 156.629 205.067 153.26 207.478 151.964C209.108 151.088 211.736 151.197 213.536 151.012C215.275 150.833 217.076 150.798 218.827 150.774C222.645 150.722 226.61 151.362 230.41 151.715C231.796 151.843 233.353 152.403 234.718 152.404C236.11 152.405 237.569 152.095 239.006 152.131C240.677 152.173 242.287 152.05 244.01 152.324C245.33 152.534 248.413 152.645 249.422 153.626C252.785 156.897 244.811 158.399 243.438 158.766C244.835 160.296 244.777 162.318 244.566 164.244C245.231 164.244 246.377 163.955 246.721 164.7C247.148 165.626 245.567 165.867 245.193 165.974C243.041 166.596 240.523 166.426 238.306 166.651C233.874 167.102 229.495 167.362 225.108 168.202C222.971 168.611 220.845 169.118 218.709 169.516C218.341 169.585 217.97 169.64 217.597 169.682C217.025 169.633 216.841 169.992 217.042 170.76C216.449 171.05 214.239 170.328 213.555 170.217C209.642 169.583 206.141 169.846 202.264 170.79Z" fill="#212121"/>
<path fill-rule="evenodd" clip-rule="evenodd" d="M281.287 208.791C278.763 210.777 276.416 212.652 273.683 214.377C275.615 214.317 282.041 211.236 281.287 208.791ZM280.301 205.553C278.923 204.37 277.555 204.491 275.85 204.132C274.28 203.802 272.754 203.233 271.187 202.854C269.957 202.557 268.74 202.155 267.514 201.874C265.784 201.478 265.614 201.914 264.022 202.821C258.379 206.037 252.064 208.249 246.119 210.86C247.865 212.396 251.791 212.463 253.972 212.952C255.565 213.31 257.08 213.799 258.605 214.364C260.026 214.892 262.314 216.105 263.812 216.145C265.076 216.179 266.104 214.935 267.193 214.265C268.625 213.383 270.05 212.516 271.493 211.656C274.547 209.837 277.403 207.607 280.301 205.553ZM254.797 218.581C254.146 217.954 252.185 217.982 251.368 217.79C249.759 217.414 248.173 217.024 246.543 216.741C243.897 216.283 239.717 216.079 239.43 212.646C239.19 209.793 242.637 209.116 244.653 208.15C247.685 206.696 250.778 205.354 253.887 204.072C256.802 202.87 259.759 201.854 262.727 200.815C263.305 200.613 263.775 200.641 264.248 200.177C264.621 199.812 264.506 199.102 264.914 198.72C265.849 197.845 267.063 198.306 268.187 198.53C270.74 199.039 273.391 199.708 275.825 200.652C278.354 201.634 280.617 201.839 281.224 204.706C282.517 204.1 283.49 204.011 283.335 205.794C283.29 206.318 282.91 206.888 282.818 207.428C282.684 208.225 282.919 209.064 282.786 209.863C282.302 212.767 278.387 214.918 275.961 216.058C272.969 217.464 269.109 219.541 265.769 219.815C262.21 220.108 258.331 218.71 254.797 218.581Z" fill="#212121"/>
<path fill-rule="evenodd" clip-rule="evenodd" d="M209.492 170.407C208.431 170.414 207.369 170.42 206.309 170.427C207.367 170.228 208.429 170.226 209.492 170.407Z" fill="#212121"/>
<path fill-rule="evenodd" clip-rule="evenodd" d="M147.412 58.1289C147.094 58.6593 146.776 59.1897 146.457 59.7207C146.566 59.0369 146.808 58.4508 147.412 58.1289Z" fill="#212121"/>
<path fill-rule="evenodd" clip-rule="evenodd" d="M209.492 185.624C210.13 185.629 210.768 185.634 211.402 185.64C210.763 185.635 210.128 185.63 209.492 185.624Z" fill="#212121"/>
<path fill-rule="evenodd" clip-rule="evenodd" d="M224.137 150.991C223.393 150.951 222.651 150.911 221.908 150.87C222.651 150.911 223.393 150.951 224.137 150.991Z" fill="#212121"/>
<path fill-rule="evenodd" clip-rule="evenodd" d="M211.402 170.423C210.765 170.417 210.128 170.411 209.492 170.405C210.131 170.231 210.768 170.237 211.402 170.423Z" fill="#212121"/>
<path fill-rule="evenodd" clip-rule="evenodd" d="M236.739 80.0958C236.721 79.4587 236.703 78.8217 236.685 78.1856C236.703 78.823 236.721 79.459 236.739 80.0958Z" fill="#212121"/>
<path fill-rule="evenodd" clip-rule="evenodd" d="M128.489 176.24C128.476 175.71 128.463 175.179 128.45 174.648C128.463 175.18 128.476 175.71 128.489 176.24Z" fill="#212121"/>
<path fill-rule="evenodd" clip-rule="evenodd" d="M145.82 150.293C146.246 150.293 146.671 150.294 147.094 150.295C146.667 150.295 146.244 150.294 145.82 150.293Z" fill="#212121"/>
<path fill-rule="evenodd" clip-rule="evenodd" d="M202.807 35.9453C202.276 35.9838 201.745 36.022 201.215 36.0606C201.746 36.022 202.276 35.9838 202.807 35.9453Z" fill="#212121"/>
<path fill-rule="evenodd" clip-rule="evenodd" d="M242.92 152.211C242.283 152.206 241.646 152.202 241.01 152.198C241.646 152.202 242.283 152.206 242.92 152.211Z" fill="#212121"/>
<path fill-rule="evenodd" clip-rule="evenodd" d="M189.3 191.522C189.284 191.096 189.268 190.671 189.253 190.248C189.268 190.674 189.284 191.098 189.3 191.522Z" fill="#212121"/>
<path fill-rule="evenodd" clip-rule="evenodd" d="M189.93 175.285C189.919 174.86 189.907 174.435 189.896 174.012C189.908 174.436 189.919 174.861 189.93 175.285Z" fill="#212121"/>
<path fill-rule="evenodd" clip-rule="evenodd" d="M179.066 182.607C179.081 183.032 179.097 183.458 179.112 183.881C179.096 183.455 179.081 183.032 179.066 182.607Z" fill="#212121"/>
<path fill-rule="evenodd" clip-rule="evenodd" d="M148.367 149.982C148.687 149.978 149.006 149.973 149.322 149.969C149.002 149.973 148.685 149.978 148.367 149.982Z" fill="#212121"/>
<path fill-rule="evenodd" clip-rule="evenodd" d="M240.691 166.551C241.011 166.537 241.33 166.523 241.646 166.51C241.326 166.524 241.008 166.537 240.691 166.551Z" fill="#212121"/>
<path fill-rule="evenodd" clip-rule="evenodd" d="M179.698 192.795C179.717 193.22 179.735 193.645 179.753 194.068C179.735 193.642 179.717 193.219 179.698 192.795Z" fill="#212121"/>
<path fill-rule="evenodd" clip-rule="evenodd" d="M213.822 190.566C213.801 190.992 213.779 191.417 213.758 191.84C213.779 191.414 213.801 190.99 213.822 190.566Z" fill="#212121"/>
<path fill-rule="evenodd" clip-rule="evenodd" d="M177.129 0.870948C176.679 0.813643 176.229 0.756815 175.779 0.69951C176.225 0.802659 176.714 0.42015 177.129 0.870948Z" fill="#212121"/>
<path fill-rule="evenodd" clip-rule="evenodd" d="M157.777 164.143C157.765 164.568 157.753 164.993 157.74 165.416C157.752 164.99 157.765 164.566 157.777 164.143Z" fill="#212121"/>
<path fill-rule="evenodd" clip-rule="evenodd" d="M130.413 202.982C130.391 202.558 130.369 202.133 130.347 201.709C130.369 202.134 130.391 202.558 130.413 202.982Z" fill="#212121"/>
<path fill-rule="evenodd" clip-rule="evenodd" d="M233.369 167.177C233.689 167.17 234.008 167.163 234.324 167.157C234.004 167.164 233.687 167.171 233.369 167.177Z" fill="#212121"/>
<path fill-rule="evenodd" clip-rule="evenodd" d="M125.283 89.9649C125.285 90.3902 125.288 90.8152 125.29 91.2383C125.287 90.8127 125.285 90.389 125.283 89.9649Z" fill="#212121"/>
<path fill-rule="evenodd" clip-rule="evenodd" d="M118.603 185.473C118.602 185.898 118.6 186.323 118.598 186.746C118.599 186.32 118.601 185.896 118.603 185.473Z" fill="#212121"/>
<path fill-rule="evenodd" clip-rule="evenodd" d="M197.949 182.926C197.938 183.351 197.927 183.776 197.915 184.199C197.74 183.763 197.76 183.34 197.949 182.926Z" fill="#212121"/>
<path fill-rule="evenodd" clip-rule="evenodd" d="M189.6 181.016C189.596 180.591 189.593 180.166 189.59 179.742C189.593 180.168 189.596 180.592 189.6 181.016Z" fill="#212121"/>
<path fill-rule="evenodd" clip-rule="evenodd" d="M254.699 218.728C255.019 218.737 255.338 218.745 255.654 218.754C255.333 218.746 255.016 218.737 254.699 218.728Z" fill="#212121"/>
<path fill-rule="evenodd" clip-rule="evenodd" d="M243.238 178.315C243.451 178.311 243.665 178.308 243.875 178.304C243.661 178.308 243.45 178.311 243.238 178.315Z" fill="#212121"/>
<path fill-rule="evenodd" clip-rule="evenodd" d="M235.279 179.265C235.493 179.265 235.706 179.264 235.916 179.264C235.702 179.265 235.491 179.265 235.279 179.265Z" fill="#212121"/>
<path fill-rule="evenodd" clip-rule="evenodd" d="M111.297 181.334C111.285 181.016 111.272 180.697 111.259 180.379C111.272 180.698 111.285 181.016 111.297 181.334Z" fill="#212121"/>
<path fill-rule="evenodd" clip-rule="evenodd" d="M241.646 181.092C241.37 181.372 241.014 181.207 240.691 181.225C241.01 181.181 241.328 181.137 241.646 181.092Z" fill="#212121"/>
<path fill-rule="evenodd" clip-rule="evenodd" d="M203.762 170.907C203.341 171.105 202.916 171.133 202.488 170.92C202.913 170.916 203.337 170.912 203.762 170.907Z" fill="#212121"/>
<path fill-rule="evenodd" clip-rule="evenodd" d="M231.459 181.817C231.034 181.813 230.61 181.81 230.186 181.806C230.61 181.81 231.035 181.813 231.459 181.817Z" fill="#212121"/>
<path fill-rule="evenodd" clip-rule="evenodd" d="M213.631 170.727C213.206 170.688 212.781 170.65 212.357 170.611C212.781 170.65 213.206 170.688 213.631 170.727Z" fill="#212121"/>
<path fill-rule="evenodd" clip-rule="evenodd" d="M116.384 169.236C116.377 169.556 116.368 169.874 116.36 170.191C116.368 169.872 116.376 169.554 116.384 169.236Z" fill="#212121"/>
<path fill-rule="evenodd" clip-rule="evenodd" d="M189.57 186.428C189.587 186.109 189.603 185.79 189.619 185.473C189.603 185.792 189.587 186.11 189.57 186.428Z" fill="#212121"/>
<path fill-rule="evenodd" clip-rule="evenodd" d="M233.369 168.069C232.945 168.104 232.52 168.14 232.096 168.176C232.52 168.14 232.945 168.104 233.369 168.069Z" fill="#212121"/>
<path fill-rule="evenodd" clip-rule="evenodd" d="M128.483 167.008C128.474 166.689 128.465 166.37 128.456 166.053C128.465 166.372 128.474 166.69 128.483 167.008Z" fill="#212121"/>
<path fill-rule="evenodd" clip-rule="evenodd" d="M181.673 142.494C181.648 142.813 181.623 143.132 181.598 143.449C181.623 143.13 181.648 142.812 181.673 142.494Z" fill="#212121"/>
<path fill-rule="evenodd" clip-rule="evenodd" d="M239.736 152.128C239.311 152.348 238.887 152.32 238.463 152.125C238.887 152.126 239.312 152.127 239.736 152.128Z" fill="#212121"/>
<path fill-rule="evenodd" clip-rule="evenodd" d="M189.305 196.297C189.286 195.978 189.267 195.66 189.248 195.342C189.267 195.661 189.286 195.979 189.305 196.297Z" fill="#212121"/>
<path fill-rule="evenodd" clip-rule="evenodd" d="M189.296 198.844C189.283 198.525 189.269 198.206 189.256 197.889C189.27 198.208 189.283 198.525 189.296 198.844Z" fill="#212121"/>
<path fill-rule="evenodd" clip-rule="evenodd" d="M129.1 156.82C129.104 156.502 129.109 156.182 129.113 155.865C129.108 156.185 129.104 156.502 129.1 156.82Z" fill="#212121"/>
<path fill-rule="evenodd" clip-rule="evenodd" d="M219.68 207.607C219.893 207.601 220.106 207.595 220.316 207.59C220.102 207.596 219.891 207.601 219.68 207.607Z" fill="#212121"/>
<path fill-rule="evenodd" clip-rule="evenodd" d="M117.035 210.305C117.017 209.986 117 209.667 116.983 209.35C117.001 209.668 117.017 209.987 117.035 210.305Z" fill="#212121"/>
<path fill-rule="evenodd" clip-rule="evenodd" d="M185.934 213.004C186.147 213.008 186.36 213.013 186.57 213.017C186.356 213.013 186.145 213.008 185.934 213.004Z" fill="#212121"/>
<path fill-rule="evenodd" clip-rule="evenodd" d="M232.096 151.934C231.671 151.902 231.247 151.87 230.822 151.838C231.247 151.87 231.671 151.902 232.096 151.934Z" fill="#212121"/>
<path fill-rule="evenodd" clip-rule="evenodd" d="M234.324 152.27L233.369 152.138L234.324 152.27Z" fill="#212121"/>
<path fill-rule="evenodd" clip-rule="evenodd" d="M186.066 185.791C186.084 184.836 186.102 183.881 186.119 182.926C186.101 183.881 186.084 184.836 186.066 185.791Z" fill="#212121"/>
<path fill-rule="evenodd" clip-rule="evenodd" d="M161.244 150.771C161.255 151.515 161.266 152.258 161.277 153C161.266 152.256 161.255 151.514 161.244 150.771Z" fill="#212121"/>
<path fill-rule="evenodd" clip-rule="evenodd" d="M106.344 197.401C105.812 197.408 105.28 197.414 104.752 197.421C105.285 197.415 105.814 197.408 106.344 197.401Z" fill="#212121"/>
<path fill-rule="evenodd" clip-rule="evenodd" d="M149.959 134.07C149.427 134.061 148.895 134.053 148.367 134.045C148.9 134.054 149.43 134.062 149.959 134.07Z" fill="#212121"/>
<path fill-rule="evenodd" clip-rule="evenodd" d="M136.27 146.474C136.801 146.474 137.331 146.474 137.861 146.473C137.331 146.473 136.8 146.474 136.27 146.474Z" fill="#212121"/>
<path fill-rule="evenodd" clip-rule="evenodd" d="M143.273 133.729C142.847 133.736 142.422 133.743 142 133.75C142.427 133.743 142.85 133.736 143.273 133.729Z" fill="#212121"/>
<path fill-rule="evenodd" clip-rule="evenodd" d="M108.891 197.415C108.465 197.412 108.039 197.41 107.617 197.408C108.044 197.41 108.467 197.412 108.891 197.415Z" fill="#212121"/>
<path fill-rule="evenodd" clip-rule="evenodd" d="M166.195 34.7849C166.726 34.748 167.257 34.7111 167.787 34.6741C167.256 34.7111 166.726 34.748 166.195 34.7849Z" fill="#212121"/>
<path fill-rule="evenodd" clip-rule="evenodd" d="M173.329 72.1367C173.348 71.606 173.368 71.0753 173.388 70.5449C173.368 71.0759 173.348 71.6063 173.329 72.1367Z" fill="#212121"/>
<path fill-rule="evenodd" clip-rule="evenodd" d="M160.465 77.071C160.145 77.071 159.826 77.0713 159.51 77.0716C159.83 77.0716 160.147 77.0713 160.465 77.071Z" fill="#212121"/>
<path fill-rule="evenodd" clip-rule="evenodd" d="M133.404 132.779C133.085 132.783 132.765 132.786 132.449 132.789C132.77 132.786 133.087 132.783 133.404 132.779Z" fill="#212121"/>
<path fill-rule="evenodd" clip-rule="evenodd" d="M126.082 145.785C126.507 145.82 126.931 145.854 127.355 145.889C126.931 145.854 126.507 145.82 126.082 145.785Z" fill="#212121"/>
<path fill-rule="evenodd" clip-rule="evenodd" d="M125.276 161.914C125.283 161.489 125.29 161.065 125.296 160.641C125.289 161.066 125.283 161.49 125.276 161.914Z" fill="#212121"/>
<path fill-rule="evenodd" clip-rule="evenodd" d="M161.738 144.944C162.163 144.903 162.587 144.861 163.012 144.819C162.587 144.861 162.163 144.903 161.738 144.944Z" fill="#212121"/>
<path fill-rule="evenodd" clip-rule="evenodd" d="M190.83 137.4C190.856 136.976 190.881 136.55 190.906 136.127C190.881 136.552 190.855 136.976 190.83 137.4Z" fill="#212121"/>
<path fill-rule="evenodd" clip-rule="evenodd" d="M196.439 78.7125C196.864 78.6794 197.288 78.6462 197.713 78.6138C197.288 78.6462 196.864 78.6794 196.439 78.7125Z" fill="#212121"/>
<path fill-rule="evenodd" clip-rule="evenodd" d="M153.143 134.381C152.823 134.378 152.504 134.374 152.187 134.372C152.508 134.374 152.825 134.378 153.143 134.381Z" fill="#212121"/>
<path fill-rule="evenodd" clip-rule="evenodd" d="M125.309 185.791C125.293 185.472 125.278 185.153 125.263 184.836C125.278 185.155 125.293 185.473 125.309 185.791Z" fill="#212121"/>
<path fill-rule="evenodd" clip-rule="evenodd" d="M161.003 169.555C161.699 171.28 161.309 170.058 161.327 170.457C160.734 170.536 160.626 170.235 161.003 169.555Z" fill="#212121"/>
<path fill-rule="evenodd" clip-rule="evenodd" d="M131.812 132.801C131.493 132.79 131.174 132.779 130.857 132.767C131.179 132.778 131.495 132.79 131.812 132.801Z" fill="#212121"/>
<path fill-rule="evenodd" clip-rule="evenodd" d="M196.887 100.471C196.907 100.046 196.927 99.6213 196.947 99.1973C196.927 99.6223 196.907 100.047 196.887 100.471Z" fill="#212121"/>
<path fill-rule="evenodd" clip-rule="evenodd" d="M125.288 182.607C125.287 182.183 125.285 181.758 125.285 181.334C125.285 181.76 125.286 182.184 125.288 182.607Z" fill="#212121"/>
<path fill-rule="evenodd" clip-rule="evenodd" d="M125.253 173.057C125.275 172.738 125.297 172.419 125.319 172.102C125.297 172.421 125.275 172.739 125.253 173.057Z" fill="#212121"/>
<path fill-rule="evenodd" clip-rule="evenodd" d="M191.46 131.352C191.49 131.033 191.52 130.714 191.549 130.397C191.52 130.716 191.49 131.034 191.46 131.352Z" fill="#212121"/>
<path fill-rule="evenodd" clip-rule="evenodd" d="M121.105 174.012C121.133 174.331 121.162 174.65 121.19 174.967C121.161 174.648 121.133 174.33 121.105 174.012Z" fill="#212121"/>
<path fill-rule="evenodd" clip-rule="evenodd" d="M120.464 171.465C120.495 171.784 120.526 172.103 120.558 172.42C120.526 172.101 120.495 171.783 120.464 171.465Z" fill="#212121"/>
<path fill-rule="evenodd" clip-rule="evenodd" d="M184.147 127.85C184.171 127.531 184.194 127.213 184.218 126.895C184.194 127.214 184.17 127.532 184.147 127.85Z" fill="#212121"/>
<path fill-rule="evenodd" clip-rule="evenodd" d="M21.6601 171.038C22.0842 171.004 22.5089 170.97 22.9336 170.937C22.5079 170.97 22.0839 171.004 21.6601 171.038Z" fill="#212121"/>
<path fill-rule="evenodd" clip-rule="evenodd" d="M181.336 178.787C181.323 179.106 181.311 179.426 181.299 179.742C181.311 179.422 181.324 179.105 181.336 178.787Z" fill="#212121"/>
<path fill-rule="evenodd" clip-rule="evenodd" d="M186.376 179.742C186.399 179.424 186.423 179.105 186.447 178.787C186.423 179.106 186.399 179.424 186.376 179.742Z" fill="#212121"/>
<path fill-rule="evenodd" clip-rule="evenodd" d="M184.451 126.576C184.484 126.258 184.518 125.939 184.551 125.621C184.518 125.94 184.484 126.258 184.451 126.576Z" fill="#212121"/>
<path fill-rule="evenodd" clip-rule="evenodd" d="M24.207 170.732C24.6317 170.69 25.0564 170.648 25.4804 170.606C25.0564 170.648 24.6311 170.69 24.207 170.732Z" fill="#212121"/>
<path fill-rule="evenodd" clip-rule="evenodd" d="M159.191 134.054C158.978 134.056 158.765 134.059 158.555 134.061C158.769 134.059 158.98 134.056 159.191 134.054Z" fill="#212121"/>
<path fill-rule="evenodd" clip-rule="evenodd" d="M125.288 170.191C125.287 169.872 125.285 169.554 125.285 169.236C125.285 169.556 125.287 169.873 125.288 170.191Z" fill="#212121"/>
<path fill-rule="evenodd" clip-rule="evenodd" d="M187.073 169.555C186.96 169.226 186.904 168.901 187.122 168.6C187.106 168.919 187.089 169.237 187.073 169.555Z" fill="#212121"/>
<path fill-rule="evenodd" clip-rule="evenodd" d="M181.649 163.506C181.64 163.825 181.631 164.144 181.622 164.461C181.632 164.142 181.64 163.824 181.649 163.506Z" fill="#212121"/>
<path fill-rule="evenodd" clip-rule="evenodd" d="M181.924 195.023C181.944 195.342 181.964 195.661 181.984 195.979C181.964 195.66 181.944 195.341 181.924 195.023Z" fill="#212121"/>
<path fill-rule="evenodd" clip-rule="evenodd" d="M205.353 79.2321C205.672 79.2776 205.991 79.3228 206.309 79.368C205.99 79.3225 205.672 79.2769 205.353 79.2321Z" fill="#212121"/>
<path fill-rule="evenodd" clip-rule="evenodd" d="M204.08 79.2616C204.507 79.2874 204.977 79.0821 205.353 79.3829L204.08 79.2616Z" fill="#212121"/>
<path fill-rule="evenodd" clip-rule="evenodd" d="M149.641 146.477C150.065 146.475 150.49 146.473 150.914 146.47C150.49 146.473 150.065 146.475 149.641 146.477Z" fill="#212121"/>
<path fill-rule="evenodd" clip-rule="evenodd" d="M159.191 78.9261L160.465 79.0369C160.04 78.9999 159.616 78.963 159.191 78.9261Z" fill="#212121"/>
<path fill-rule="evenodd" clip-rule="evenodd" d="M138.18 146.391C138.605 146.393 139.029 146.394 139.453 146.396C139.027 146.601 138.602 146.621 138.18 146.391Z" fill="#212121"/>
<path fill-rule="evenodd" clip-rule="evenodd" d="M126.596 199.799C126.572 199.48 126.548 199.161 126.523 198.844C126.548 199.163 126.572 199.481 126.596 199.799Z" fill="#212121"/>
<path fill-rule="evenodd" clip-rule="evenodd" d="M173.033 79.459C173.038 79.14 173.042 78.8216 173.047 78.5039C173.042 78.8232 173.038 79.1413 173.033 79.459Z" fill="#212121"/>
<path fill-rule="evenodd" clip-rule="evenodd" d="M146.139 146.525C146.563 146.491 146.988 146.457 147.412 146.422C146.987 146.457 146.563 146.491 146.139 146.525Z" fill="#212121"/>
<path fill-rule="evenodd" clip-rule="evenodd" d="M182.262 202.664C182.269 202.983 182.276 203.301 182.283 203.619C182.276 203.3 182.269 202.982 182.262 202.664Z" fill="#212121"/>
<path fill-rule="evenodd" clip-rule="evenodd" d="M183.387 71.4017C183.811 71.3613 184.236 71.3208 184.66 71.2804C184.236 71.3208 183.811 71.3613 183.387 71.4017Z" fill="#212121"/>
<path fill-rule="evenodd" clip-rule="evenodd" d="M188.914 152.682C188.944 152.363 188.973 152.044 189.002 151.727C188.973 152.046 188.943 152.363 188.914 152.682Z" fill="#212121"/>
<path fill-rule="evenodd" clip-rule="evenodd" d="M203.566 67.6797C203.591 67.3607 203.615 67.0423 203.639 66.7246C203.615 67.0436 203.59 67.3616 203.566 67.6797Z" fill="#212121"/>
<path fill-rule="evenodd" clip-rule="evenodd" d="M173.349 40.3008C173.355 40.6195 173.361 40.9385 173.368 41.2559C173.362 40.9365 173.355 40.6185 173.349 40.3008Z" fill="#212121"/>
<path fill-rule="evenodd" clip-rule="evenodd" d="M162.057 34.358C162.481 34.3934 162.906 34.429 163.33 34.464C162.906 34.4287 162.481 34.3934 162.057 34.358Z" fill="#212121"/>
<path fill-rule="evenodd" clip-rule="evenodd" d="M98.3847 215.302C98.8094 215.26 99.2335 215.219 99.6582 215.177C99.2335 215.219 98.8094 215.26 98.3847 215.302Z" fill="#212121"/>
<path fill-rule="evenodd" clip-rule="evenodd" d="M162.693 31.2279C162.48 31.2276 162.267 31.2272 162.057 31.2272C162.271 31.2279 162.482 31.2279 162.693 31.2279Z" fill="#212121"/>
<path fill-rule="evenodd" clip-rule="evenodd" d="M84.3769 219.448C84.8019 219.229 85.226 219.291 85.6504 219.45C85.226 219.449 84.801 219.449 84.3769 219.448Z" fill="#212121"/>
<path fill-rule="evenodd" clip-rule="evenodd" d="M249.605 200.97C250.348 200.932 251.091 200.894 251.834 200.856C251.091 200.894 250.348 200.932 249.605 200.97Z" fill="#212121"/>
<path fill-rule="evenodd" clip-rule="evenodd" d="M249.605 195.486C249.179 195.496 248.754 195.506 248.332 195.516C248.759 195.506 249.182 195.496 249.605 195.486Z" fill="#212121"/>
<path fill-rule="evenodd" clip-rule="evenodd" d="M243.238 189.172C243.769 189.132 244.299 189.091 244.83 189.051C244.335 189.362 243.769 189.132 243.238 189.172Z" fill="#212121"/>
<path fill-rule="evenodd" clip-rule="evenodd" d="M237.189 189.828C237.72 189.79 238.251 189.751 238.781 189.713C238.251 189.751 237.72 189.79 237.189 189.828Z" fill="#212121"/>
<path fill-rule="evenodd" clip-rule="evenodd" d="M228.275 195.551C228.7 195.518 229.124 195.484 229.549 195.451C229.124 195.484 228.7 195.518 228.275 195.551Z" fill="#212121"/>
<path fill-rule="evenodd" clip-rule="evenodd" d="M230.504 195.552C230.928 195.518 231.353 195.484 231.777 195.451C231.353 195.484 230.928 195.518 230.504 195.552Z" fill="#212121"/>
<path fill-rule="evenodd" clip-rule="evenodd" d="M232.096 195.239C232.52 195.201 232.944 195.164 233.369 195.126C232.945 195.164 232.52 195.201 232.096 195.239Z" fill="#212121"/>
<path fill-rule="evenodd" clip-rule="evenodd" d="M234.324 184.356C234.005 184.358 233.686 184.36 233.369 184.361C233.69 184.359 234.007 184.357 234.324 184.356Z" fill="#212121"/>
<path fill-rule="evenodd" clip-rule="evenodd" d="M242.283 201.894C242.708 201.859 243.132 201.822 243.557 201.787C243.161 202.065 242.713 201.905 242.283 201.894Z" fill="#212121"/>
<path fill-rule="evenodd" clip-rule="evenodd" d="M230.186 176.46C230.61 176.42 231.034 176.379 231.459 176.339C231.034 176.379 230.61 176.42 230.186 176.46Z" fill="#212121"/>
<path fill-rule="evenodd" clip-rule="evenodd" d="M228.594 171.306C228.274 171.306 227.955 171.305 227.639 171.305C227.96 171.305 228.277 171.306 228.594 171.306Z" fill="#212121"/>
<path fill-rule="evenodd" clip-rule="evenodd" d="M225.41 171.941C225.197 171.942 224.984 171.943 224.773 171.944C224.988 171.943 225.199 171.942 225.41 171.941Z" fill="#212121"/>
<path fill-rule="evenodd" clip-rule="evenodd" d="M217.769 172.828C217.663 173.089 217.1 173.056 217.134 172.787C217.346 172.801 217.557 172.814 217.769 172.828Z" fill="#212121"/>
<path fill-rule="evenodd" clip-rule="evenodd" d="M202.946 174.012C202.959 174.33 202.972 174.649 202.985 174.967C202.972 174.648 202.959 174.329 202.946 174.012Z" fill="#212121"/>
<path fill-rule="evenodd" clip-rule="evenodd" d="M246.422 175.699C246.74 175.694 247.059 175.689 247.377 175.683C247.062 175.908 246.744 175.877 246.422 175.699Z" fill="#212121"/>
<path fill-rule="evenodd" clip-rule="evenodd" d="M234.324 170.983C234.111 170.986 233.898 170.989 233.687 170.992C233.902 170.989 234.113 170.986 234.324 170.983Z" fill="#212121"/>
<path fill-rule="evenodd" clip-rule="evenodd" d="M226.047 191.103C226.472 191.064 226.896 191.024 227.32 190.984C226.896 191.024 226.472 191.064 226.047 191.103Z" fill="#212121"/>
<path fill-rule="evenodd" clip-rule="evenodd" d="M220.953 191.736L222.227 191.625L220.953 191.736Z" fill="#212121"/>
<path fill-rule="evenodd" clip-rule="evenodd" d="M245.785 201.291C246.209 201.251 246.634 201.211 247.059 201.172C246.634 201.211 246.209 201.251 245.785 201.291Z" fill="#212121"/>
<path fill-rule="evenodd" clip-rule="evenodd" d="M230.504 203.208C230.929 203.053 231.354 203 231.777 203.212C231.353 203.211 230.928 203.209 230.504 203.208Z" fill="#212121"/>
<path fill-rule="evenodd" clip-rule="evenodd" d="M229.829 159.325L229.23 159.118C229.973 159.109 230.716 159.1 231.459 159.091C231.461 159.091 229.915 159.332 229.829 159.325Z" fill="#212121"/>
<path fill-rule="evenodd" clip-rule="evenodd" d="M224.137 153.797C223.605 153.796 223.073 153.796 222.545 153.795C223.078 153.796 223.607 153.797 224.137 153.797Z" fill="#212121"/>
<path fill-rule="evenodd" clip-rule="evenodd" d="M204.08 165.966C204.61 165.754 205.141 165.795 205.672 165.96C205.141 165.962 204.611 165.964 204.08 165.966Z" fill="#212121"/>
<path fill-rule="evenodd" clip-rule="evenodd" d="M236.234 160.794C235.915 160.798 235.595 160.802 235.279 160.806C235.6 160.801 235.917 160.798 236.234 160.794Z" fill="#212121"/>
<path fill-rule="evenodd" clip-rule="evenodd" d="M229.549 156.609C230.08 156.644 230.611 156.678 231.141 156.713C230.61 156.678 230.079 156.644 229.549 156.609Z" fill="#212121"/>
<path fill-rule="evenodd" clip-rule="evenodd" d="M222.863 159.901C223.394 159.864 223.925 159.826 224.455 159.788C223.925 159.826 223.394 159.864 222.863 159.901Z" fill="#212121"/>
<path fill-rule="evenodd" clip-rule="evenodd" d="M227.002 159.262C227.426 159.226 227.851 159.19 228.275 159.154C227.851 159.19 227.426 159.226 227.002 159.262Z" fill="#212121"/>
<path fill-rule="evenodd" clip-rule="evenodd" d="M223.5 156.291C223.925 156.325 224.349 156.36 224.773 156.395C224.349 156.36 223.924 156.325 223.5 156.291Z" fill="#212121"/>
<path fill-rule="evenodd" clip-rule="evenodd" d="M217.451 162.398C217.238 162.394 217.025 162.389 216.814 162.385C217.028 162.389 217.24 162.394 217.451 162.398Z" fill="#212121"/>
<path fill-rule="evenodd" clip-rule="evenodd" d="M224.137 159.228C223.923 159.215 223.71 159.201 223.5 159.188C223.714 159.201 223.925 159.215 224.137 159.228Z" fill="#212121"/>
<path fill-rule="evenodd" clip-rule="evenodd" d="M219.998 159.217C219.785 159.211 219.571 159.205 219.361 159.199C219.575 159.205 219.787 159.211 219.998 159.217Z" fill="#212121"/>
<path fill-rule="evenodd" clip-rule="evenodd" d="M231.459 158.921C231.459 159.003 232.418 158.585 232.414 158.974L231.459 158.921Z" fill="#212121"/>
<path fill-rule="evenodd" clip-rule="evenodd" d="M227.957 153.795C227.744 153.796 227.531 153.796 227.32 153.797C227.535 153.796 227.746 153.796 227.957 153.795Z" fill="#212121"/>
<path fill-rule="evenodd" clip-rule="evenodd" d="M114.939 138.698C115.284 137.291 115.19 136.19 116.418 137.089C117.092 137.583 118.203 140.086 118.119 140.934C118.015 141.98 117.538 142.396 116.554 142.064C115.422 141.68 114.973 139.751 114.939 138.698Z" fill="#212121"/>
<path fill-rule="evenodd" clip-rule="evenodd" d="M176.965 130.157C179.817 130.157 178.572 133.191 176.196 133.259C175.104 133.29 173.533 133.075 173.887 131.613C174.076 130.833 176.846 129.781 176.965 130.157Z" fill="#212121"/>
<path fill-rule="evenodd" clip-rule="evenodd" d="M146.385 136.127C148.443 137.123 145.547 141.495 143.677 140.413C141.283 139.028 145.539 136.751 146.385 136.127Z" fill="#212121"/>
<path fill-rule="evenodd" clip-rule="evenodd" d="M141.377 140.266C142.051 141 145.087 143.492 143.413 144.493C141.356 145.725 139.789 141.659 141.377 140.266Z" fill="#212121"/>
<path fill-rule="evenodd" clip-rule="evenodd" d="M106.878 138.355C106.208 137.061 107.13 133.672 109.174 134.292C111.231 134.915 108.01 138.012 106.878 138.355Z" fill="#212121"/>
<path fill-rule="evenodd" clip-rule="evenodd" d="M152.296 139.102C153.631 138.564 153.376 140.154 153.578 140.667C153.807 141.25 154.982 142.669 154.687 143.289C154.25 144.209 153.204 143.623 152.636 143.026C151.641 141.978 151.711 140.297 152.296 139.102Z" fill="#212121"/>
<path fill-rule="evenodd" clip-rule="evenodd" d="M131.953 140.575C130.84 140.575 128.184 137.368 129.745 136.829C131.682 136.161 133.301 140.811 131.953 140.575Z" fill="#212121"/>
<path fill-rule="evenodd" clip-rule="evenodd" d="M170.4 135.49C171.419 135.741 172.768 138.626 171.232 138.961C169.532 139.332 169.229 136.288 170.4 135.49Z" fill="#212121"/>
<path fill-rule="evenodd" clip-rule="evenodd" d="M164.222 140.902C163.423 139.363 163.226 136.069 165.177 138.713C165.6 139.286 166.036 139.054 165.819 139.999C165.63 140.824 164.872 140.902 164.222 140.902Z" fill="#212121"/>
<path fill-rule="evenodd" clip-rule="evenodd" d="M122.13 132.943C122.944 134.169 122.704 138.014 121.002 135.74C120.278 134.773 120.776 132.989 122.13 132.943Z" fill="#212121"/>
<path fill-rule="evenodd" clip-rule="evenodd" d="M163.072 17.4101C164.652 17.0021 165.031 20.7279 164.109 21.1386C162.819 21.7133 162.98 18.0333 163.072 17.4101Z" fill="#212121"/>
<path fill-rule="evenodd" clip-rule="evenodd" d="M263.026 206.691C261.56 206.605 259.505 206.205 261.727 205.164C263.136 204.505 265.232 204.459 266.72 204.73C267.746 204.916 269.285 205.767 267.72 206.869C266.804 207.514 264.14 206.723 263.026 206.691Z" fill="#212121"/>
<path fill-rule="evenodd" clip-rule="evenodd" d="M261.382 209.35C260.958 209.302 260.534 209.254 260.111 209.207C260.451 208.589 261.439 208.46 261.382 209.35Z" fill="#212121"/>
<path fill-rule="evenodd" clip-rule="evenodd" d="M263.295 206.63C263.721 206.639 264.146 206.649 264.568 206.658C264.141 206.648 263.718 206.639 263.295 206.63Z" fill="#212121"/>
</svg>
