<svg width="222" height="140" viewBox="0 0 222 140" fill="none" xmlns="http://www.w3.org/2000/svg">
<path fill-rule="evenodd" clip-rule="evenodd" d="M154.412 122.129C154.094 122.659 153.776 123.19 153.457 123.721C153.566 123.037 153.808 122.451 154.412 122.129Z" fill="#212121"/>
<path fill-rule="evenodd" clip-rule="evenodd" d="M209.807 99.9453C209.276 99.9838 208.745 100.022 208.215 100.061C208.746 100.022 209.276 99.9838 209.807 99.9453Z" fill="#212121"/>
<path fill-rule="evenodd" clip-rule="evenodd" d="M184.129 64.8709C183.679 64.8136 183.229 64.7568 182.779 64.6995C183.226 64.8027 183.714 64.4202 184.129 64.8709Z" fill="#212121"/>
<path fill-rule="evenodd" clip-rule="evenodd" d="M173.195 98.7849C173.726 98.748 174.257 98.7111 174.787 98.6741C174.256 98.7111 173.726 98.748 173.195 98.7849Z" fill="#212121"/>
<path fill-rule="evenodd" clip-rule="evenodd" d="M180.329 136.137C180.348 135.606 180.368 135.075 180.388 134.545C180.368 135.076 180.348 135.606 180.329 136.137Z" fill="#212121"/>
<path fill-rule="evenodd" clip-rule="evenodd" d="M210.566 131.68C210.591 131.361 210.615 131.042 210.639 130.725C210.615 131.044 210.59 131.362 210.566 131.68Z" fill="#212121"/>
<path fill-rule="evenodd" clip-rule="evenodd" d="M180.349 104.301C180.355 104.619 180.361 104.938 180.368 105.256C180.362 104.937 180.355 104.619 180.349 104.301Z" fill="#212121"/>
<path fill-rule="evenodd" clip-rule="evenodd" d="M169.057 98.358C169.481 98.3934 169.906 98.429 170.33 98.464C169.906 98.4287 169.481 98.3934 169.057 98.358Z" fill="#212121"/>
<path fill-rule="evenodd" clip-rule="evenodd" d="M169.693 95.2279C169.48 95.2276 169.267 95.2272 169.057 95.2272C169.271 95.2279 169.482 95.2279 169.693 95.2279Z" fill="#212121"/>
<path fill-rule="evenodd" clip-rule="evenodd" d="M170.072 81.4101C171.652 81.0021 172.031 84.7279 171.109 85.1386C169.819 85.7133 169.98 82.0333 170.072 81.4101Z" fill="#212121"/>
<g filter="url(#filter0_d_0_1)">
<path d="M60.0094 90.7025C60.6305 88.0189 56.6227 85.6439 55.318 87.2103C53.8688 91.9486 47.7164 92.8314 43.0641 93.3197C40.5016 93.5619 38.4 93.9291 37.1617 95.0228C36.2086 88.0775 32.6695 83.2377 26.2438 81.7923C18.4742 80.0345 12.5367 86.6752 11.1734 96.3666C9.68125 106.527 12.7164 117.077 21.3141 118.952C24.357 119.62 27.3922 118.601 29.3531 116.226C30.2125 114.839 28.6461 111.847 27.2359 112.011C24.6187 113.027 22.357 112.41 20.5875 110.831C16.693 108.96 14.6148 103.179 15.4195 97.4486C16.3688 91.1322 20.025 87.0033 25.3961 88.2416C31.8219 89.6908 34.4 95.7767 33.0992 103.312C25.5289 100.136 21.5484 97.5853 20.0484 95.3861C19.0289 94.5189 17.2203 98.3627 18.2633 100.378C19.3492 102.519 22.1734 104.726 25.8219 106.628C30.6969 109.242 44.8219 114.667 48.2555 117.257C50.3258 117.972 51.5055 112.593 50.1695 111.378C47.4547 109.671 41.1617 106.855 36.6812 104.839C36.8492 104.081 37.107 102.249 37.1891 101.234C38.275 99.9408 40.1148 99.2962 42.6578 99.2298C49.1813 98.7025 58.3688 97.6439 60.0094 90.7025Z" fill="#212121"/>
</g>
<g filter="url(#filter1_d_0_1)">
<path d="M39.2756 64.4246C35.846 70.5105 37.3069 78.3309 43.5061 83.3621C48.7522 87.7644 55.9592 87.8699 60.4006 79.9519C63.1702 75.0027 64.721 67.7371 57.3577 58.4715C56.8577 57.8777 54.8381 59.1824 55.3069 59.8269C60.7092 66.5301 59.6506 73.1082 57.4085 76.5184C55.1155 80.034 51.9241 80.8699 48.6975 78.7918C53.3186 73.3894 54.0725 67.3934 51.1155 63.3699C48.2952 59.3504 42.5647 58.5965 39.2756 64.4246ZM42.678 67.0613C43.7756 65.0769 45.7131 66.0144 47.0217 67.7684C48.803 70.0379 48.8069 73.4012 46.1897 77.0184C42.8694 74.0887 41.2288 69.4715 42.678 67.0613Z" fill="#212121"/>
</g>
<g filter="url(#filter2_d_0_1)">
<path d="M55.1325 42.1188C51.4137 47.8571 51.7575 57.6422 56.7653 64.0172C60.9684 69.3258 65.5583 68.9977 68.4606 65.7438C71.6364 62.0992 70.6833 57.6617 69.4098 53.6617C72.1833 57.1735 75.2965 57.8414 77.234 55.7281C81.0231 51.5914 79.945 44.2867 77.2418 37.6031C76.9567 36.8571 74.6247 37.6344 74.9528 38.3375C77.3278 43.4313 77.5778 49.1656 76.1325 50.8336C75.2028 51.8453 73.9489 51.1813 72.1911 48.6813C70.3981 46.3102 68.484 43.0992 67.2575 41.0836C66.1715 40.4117 62.2614 42.8219 62.5504 44.5406C66.8122 51.1969 69.4684 61.7281 65.3786 61.9508C63.4411 62.0328 60.6872 59.0289 59.0778 55.0446C57.4254 51.0172 57.3981 46.5406 59.3825 43.6656C60.9762 41.4 63.8512 39.4977 66.9567 39.025C67.9528 38.6422 67.5817 34.986 66.4723 34.7789C61.7067 34.9469 57.3122 38.7711 55.1325 42.1188Z" fill="#212121"/>
</g>
<g filter="url(#filter3_d_0_1)">
<path d="M80.3809 3.20384C81.1426 7.21556 82.8809 14.8913 84.17 19.4187C80.2676 20.8132 75.0528 25.1062 74.209 32.3288C72.9473 41.9695 78.6895 52.6609 86.1621 47.8327C90.1582 45.3288 90.7715 40.4851 90.4082 36.4421C92.2246 40.5788 95.3692 41.9499 98.0371 40.2546C102.596 37.4109 103.381 30.0867 102.588 23.1609C102.522 22.3601 100.115 22.4265 100.182 23.2273C100.951 28.2781 100.303 33.9851 98.3457 35.2468C94.3262 37.8288 88.377 10.1452 86.3848 1.01634C85.5684 -0.440693 80.4864 1.88353 80.3809 3.20384ZM85.291 23.5554C86.4004 27.2156 87.2403 30.5476 87.541 32.8796C88.42 39.2585 86.9121 43.6726 84.5059 43.3913C81.791 43.2937 79.8692 36.9187 79.8653 33.0085C79.8301 27.7898 82.4825 24.5671 85.291 23.5554Z" fill="#212121"/>
</g>
<g filter="url(#filter4_d_0_1)">
<path d="M132.496 29.7197C138.121 28.3408 140.906 20.4892 142.211 14.8447C142.414 14.0673 140.062 13.3447 139.918 14.1103C138.871 19.5166 136.179 24.665 133.961 25.1376C130.937 25.8408 132.828 15.4931 132.929 11.0791C133.023 6.05562 131.187 3.45405 126.75 4.39546C122.945 5.14155 120.375 8.8603 118.765 12.1923C118.664 8.55562 116.535 6.56343 113.437 7.22359C109.922 7.90718 106.976 12.1337 105.539 15.4267L105.843 10.5439C105.195 8.91109 100.25 9.47359 99.5856 10.958C99.1325 20.0244 98.6989 26.8876 98.3044 35.0869C98.5036 37.1806 104.679 35.8095 104.922 34.3525C105.004 29.5751 105.097 25.4072 105.484 20.6259C106.738 16.7626 108.965 13.1767 110.777 12.79C112.457 12.372 112.75 14.3251 112.664 15.9306C112.445 22.3837 112.285 27.3603 112.156 32.5126C112.75 34.1572 118.261 32.8017 118.629 31.3837C118.797 27.8681 118.824 21.9462 119.066 17.9267C119.683 14.5009 122.383 10.2666 124.414 9.77437C126.281 9.37593 126.367 11.4931 126.316 13.2744C126.215 16.5322 125.894 21.9072 125.98 24.3291C126.062 28.4619 127.976 30.8642 132.496 29.7197Z" fill="#212121"/>
</g>
<g filter="url(#filter5_d_0_1)">
<path d="M154.99 4.98771C147.986 4.2299 140.982 8.76896 138.303 16.7338C135.396 25.5151 139.678 29.3002 145.424 30.019C149.33 30.5072 152.834 29.4408 155.826 27.1674C160.037 28.5971 165.181 28.3393 170.084 20.4096C170.537 19.683 168.603 18.3002 168.158 18.9643C164.865 24.6283 161.252 25.6205 158.385 24.9604C164.459 17.3002 165.553 6.12834 154.99 4.98771ZM153.693 9.09709C158.166 9.41349 156.689 15.9057 153.701 21.0658C152.088 20.5033 150.271 22.5033 151.181 24.3627C149.959 25.4721 148.377 26.1166 146.896 25.9291C143.224 25.4721 143.935 21.2299 145.103 17.6479C146.549 13.3158 150.178 8.83537 153.693 9.09709Z" fill="#212121"/>
</g>
<g filter="url(#filter6_d_0_1)">
<path d="M167.18 22.6028C171.09 19.1263 173.993 15.7708 176.399 12.5442C177.028 14.388 178.594 17.1106 176.559 18.5599C173.059 20.9778 169.239 23.7239 167.856 27.2825C166.52 30.7317 167.661 34.0599 171.977 35.7981C178.465 38.3841 184.852 34.97 190.317 29.4739C190.833 28.97 189.391 27.0677 188.875 27.5716C183.344 32.9153 178.297 33.7083 175.684 32.6927C173.903 32.0013 173.766 30.5403 174.504 28.9661C175.684 26.4192 178.801 24.1692 181.95 22.3177C186.118 19.8372 181.915 14.1731 180.051 9.73564C185.122 2.61064 172.918 1.3958 175.09 10.306C171.875 14.6302 169.563 17.1224 165.586 20.7669C164.915 21.3372 166.532 23.1185 167.18 22.6028Z" fill="#212121"/>
</g>
<g filter="url(#filter7_d_0_1)">
<path d="M207.13 25.492C201.505 21.3436 193.568 21.8358 187.818 27.3709C182.802 32.0389 181.814 39.1795 189.126 44.5584C193.701 47.9139 200.724 50.3397 210.822 44.1678C211.474 43.7459 210.427 41.578 209.724 41.9686C202.412 46.5076 196.013 44.6483 192.904 42.0076C189.693 39.3006 189.255 36.0311 191.712 33.0858C196.513 38.3319 202.369 39.8162 206.724 37.3748C211.06 35.0623 212.505 29.4725 207.13 25.492ZM204.091 28.5467C205.927 29.8787 204.763 31.6873 202.861 32.7694C200.388 34.2616 197.052 33.8514 193.779 30.8123C197.099 27.8748 201.88 26.8123 204.091 28.5467Z" fill="#212121"/>
</g>
<defs>
<filter id="filter0_d_0_1" x="0.809082" y="81.5099" width="69.2652" height="57.6435" filterUnits="userSpaceOnUse" color-interpolation-filters="sRGB">
<feFlood flood-opacity="0" result="BackgroundImageFix"/>
<feColorMatrix in="SourceAlpha" type="matrix" values="0 0 0 0 0 0 0 0 0 0 0 0 0 0 0 0 0 0 127 0" result="hardAlpha"/>
<feOffset dy="10"/>
<feGaussianBlur stdDeviation="5"/>
<feComposite in2="hardAlpha" operator="out"/>
<feColorMatrix type="matrix" values="0 0 0 0 0.129412 0 0 0 0 0.129412 0 0 0 0 0.129412 0 0 0 0.15 0"/>
<feBlend mode="normal" in2="BackgroundImageFix" result="effect1_dropShadow_0_1"/>
<feBlend mode="normal" in="SourceGraphic" in2="effect1_dropShadow_0_1" result="shape"/>
</filter>
<filter id="filter1_d_0_1" x="27.4651" y="58.3204" width="45.2348" height="48.041" filterUnits="userSpaceOnUse" color-interpolation-filters="sRGB">
<feFlood flood-opacity="0" result="BackgroundImageFix"/>
<feColorMatrix in="SourceAlpha" type="matrix" values="0 0 0 0 0 0 0 0 0 0 0 0 0 0 0 0 0 0 127 0" result="hardAlpha"/>
<feOffset dy="10"/>
<feGaussianBlur stdDeviation="5"/>
<feComposite in2="hardAlpha" operator="out"/>
<feColorMatrix type="matrix" values="0 0 0 0 0.129412 0 0 0 0 0.129412 0 0 0 0 0.129412 0 0 0 0.15 0"/>
<feBlend mode="normal" in2="BackgroundImageFix" result="effect1_dropShadow_0_1"/>
<feBlend mode="normal" in="SourceGraphic" in2="effect1_dropShadow_0_1" result="shape"/>
</filter>
<filter id="filter2_d_0_1" x="42.6343" y="34.7789" width="47.0545" height="53.3341" filterUnits="userSpaceOnUse" color-interpolation-filters="sRGB">
<feFlood flood-opacity="0" result="BackgroundImageFix"/>
<feColorMatrix in="SourceAlpha" type="matrix" values="0 0 0 0 0 0 0 0 0 0 0 0 0 0 0 0 0 0 127 0" result="hardAlpha"/>
<feOffset dy="10"/>
<feGaussianBlur stdDeviation="5"/>
<feComposite in2="hardAlpha" operator="out"/>
<feColorMatrix type="matrix" values="0 0 0 0 0.129412 0 0 0 0 0.129412 0 0 0 0 0.129412 0 0 0 0.15 0"/>
<feBlend mode="normal" in2="BackgroundImageFix" result="effect1_dropShadow_0_1"/>
<feBlend mode="normal" in="SourceGraphic" in2="effect1_dropShadow_0_1" result="shape"/>
</filter>
<filter id="filter3_d_0_1" x="64.0345" y="0.552612" width="48.8243" height="68.4784" filterUnits="userSpaceOnUse" color-interpolation-filters="sRGB">
<feFlood flood-opacity="0" result="BackgroundImageFix"/>
<feColorMatrix in="SourceAlpha" type="matrix" values="0 0 0 0 0 0 0 0 0 0 0 0 0 0 0 0 0 0 127 0" result="hardAlpha"/>
<feOffset dy="10"/>
<feGaussianBlur stdDeviation="5"/>
<feComposite in2="hardAlpha" operator="out"/>
<feColorMatrix type="matrix" values="0 0 0 0 0.129412 0 0 0 0 0.129412 0 0 0 0 0.129412 0 0 0 0.15 0"/>
<feBlend mode="normal" in2="BackgroundImageFix" result="effect1_dropShadow_0_1"/>
<feBlend mode="normal" in="SourceGraphic" in2="effect1_dropShadow_0_1" result="shape"/>
</filter>
<filter id="filter4_d_0_1" x="88.3044" y="4.20514" width="63.9187" height="51.9539" filterUnits="userSpaceOnUse" color-interpolation-filters="sRGB">
<feFlood flood-opacity="0" result="BackgroundImageFix"/>
<feColorMatrix in="SourceAlpha" type="matrix" values="0 0 0 0 0 0 0 0 0 0 0 0 0 0 0 0 0 0 127 0" result="hardAlpha"/>
<feOffset dy="10"/>
<feGaussianBlur stdDeviation="5"/>
<feComposite in2="hardAlpha" operator="out"/>
<feColorMatrix type="matrix" values="0 0 0 0 0.129412 0 0 0 0 0.129412 0 0 0 0 0.129412 0 0 0 0.15 0"/>
<feBlend mode="normal" in2="BackgroundImageFix" result="effect1_dropShadow_0_1"/>
<feBlend mode="normal" in="SourceGraphic" in2="effect1_dropShadow_0_1" result="shape"/>
</filter>
<filter id="filter5_d_0_1" x="127.367" y="4.9057" width="52.785" height="45.2297" filterUnits="userSpaceOnUse" color-interpolation-filters="sRGB">
<feFlood flood-opacity="0" result="BackgroundImageFix"/>
<feColorMatrix in="SourceAlpha" type="matrix" values="0 0 0 0 0 0 0 0 0 0 0 0 0 0 0 0 0 0 127 0" result="hardAlpha"/>
<feOffset dy="10"/>
<feGaussianBlur stdDeviation="5"/>
<feComposite in2="hardAlpha" operator="out"/>
<feColorMatrix type="matrix" values="0 0 0 0 0.129412 0 0 0 0 0.129412 0 0 0 0 0.129412 0 0 0 0.15 0"/>
<feBlend mode="normal" in2="BackgroundImageFix" result="effect1_dropShadow_0_1"/>
<feBlend mode="normal" in="SourceGraphic" in2="effect1_dropShadow_0_1" result="shape"/>
</filter>
<filter id="filter6_d_0_1" x="155.426" y="4.00519" width="45.0004" height="52.6729" filterUnits="userSpaceOnUse" color-interpolation-filters="sRGB">
<feFlood flood-opacity="0" result="BackgroundImageFix"/>
<feColorMatrix in="SourceAlpha" type="matrix" values="0 0 0 0 0 0 0 0 0 0 0 0 0 0 0 0 0 0 127 0" result="hardAlpha"/>
<feOffset dy="10"/>
<feGaussianBlur stdDeviation="5"/>
<feComposite in2="hardAlpha" operator="out"/>
<feColorMatrix type="matrix" values="0 0 0 0 0.129412 0 0 0 0 0.129412 0 0 0 0 0.129412 0 0 0 0.15 0"/>
<feBlend mode="normal" in2="BackgroundImageFix" result="effect1_dropShadow_0_1"/>
<feBlend mode="normal" in="SourceGraphic" in2="effect1_dropShadow_0_1" result="shape"/>
</filter>
<filter id="filter7_d_0_1" x="173.848" y="22.7456" width="47.179" height="45.2299" filterUnits="userSpaceOnUse" color-interpolation-filters="sRGB">
<feFlood flood-opacity="0" result="BackgroundImageFix"/>
<feColorMatrix in="SourceAlpha" type="matrix" values="0 0 0 0 0 0 0 0 0 0 0 0 0 0 0 0 0 0 127 0" result="hardAlpha"/>
<feOffset dy="10"/>
<feGaussianBlur stdDeviation="5"/>
<feComposite in2="hardAlpha" operator="out"/>
<feColorMatrix type="matrix" values="0 0 0 0 0.129412 0 0 0 0 0.129412 0 0 0 0 0.129412 0 0 0 0.15 0"/>
<feBlend mode="normal" in2="BackgroundImageFix" result="effect1_dropShadow_0_1"/>
<feBlend mode="normal" in="SourceGraphic" in2="effect1_dropShadow_0_1" result="shape"/>
</filter>
</defs>
</svg>
