<svg width="34" height="38" viewBox="0 0 34 38" fill="none" xmlns="http://www.w3.org/2000/svg">
<path d="M0.0628732 22.3983C0.312193 25.2654 1.30011 28.021 2.93209 30.4017C4.56408 32.7823 6.78552 34.7083 9.38386 35.9953C11.9822 37.2823 14.8705 37.8873 17.7724 37.7523C20.6743 37.6174 23.4926 36.747 25.9578 35.2245C28.4036 33.7012 30.4225 31.5921 31.828 29.0919C33.2336 26.5916 33.9806 23.7809 34 20.9192C34 20.639 33.8876 20.3703 33.6876 20.1721C33.4876 19.974 33.2163 19.8627 32.9334 19.8627C32.6505 19.8627 32.3792 19.974 32.1792 20.1721C31.9792 20.3703 31.8668 20.639 31.8668 20.9192C31.8674 23.6211 31.1183 26.2712 29.7013 28.58C28.2843 30.8887 26.254 32.7673 23.8322 34.0104C21.4103 35.2535 18.6901 35.8133 15.9688 35.6287C13.2475 35.4441 10.6297 34.5221 8.40156 32.9636C6.28794 31.4836 4.60105 29.4825 3.50781 27.1585C2.41456 24.8345 1.95284 22.268 2.16833 19.7129C2.38382 17.1578 3.26905 14.7028 4.73644 12.5907C6.20383 10.4785 8.20252 8.78249 10.5348 7.67037C13.6723 6.41969 17.0636 5.92015 20.4328 6.21237V9.27629C20.4337 9.47435 20.4909 9.66817 20.5976 9.83563C20.7044 10.0031 20.8566 10.1374 21.0367 10.2234C21.2169 10.3093 21.4178 10.3433 21.6165 10.3216C21.8153 10.2998 22.0038 10.2232 22.1607 10.1004L27.4297 5.97993C27.5582 5.88117 27.6622 5.75463 27.7337 5.60996C27.8052 5.4653 27.8424 5.30636 27.8424 5.14528C27.8424 4.9842 27.8052 4.82525 27.7337 4.68059C27.6622 4.53593 27.5582 4.40938 27.4297 4.31062L22.1181 0.211306C21.9596 0.0935802 21.7712 0.0218903 21.5739 0.00426956C21.3766 -0.0133511 21.1783 0.0237937 21.0011 0.111541C20.8239 0.199289 20.6749 0.334172 20.5708 0.501077C20.4667 0.667983 20.4115 0.860316 20.4115 1.05653V4.09932C18.8969 4.07819 17.361 4.03593 15.8678 4.14158C13.6133 4.29479 11.4121 4.89083 9.39246 5.89497C7.3728 6.89912 5.57504 8.29131 4.1039 9.99044C2.63276 11.6896 1.51765 13.6617 0.823504 15.7919C0.129362 17.9221 -0.127794 20.1679 0.0628732 22.3983Z" fill="black"/>
<path d="M13.004 24.14C12.5 24.14 11.9773 24.0747 11.436 23.944C10.8947 23.8133 10.4233 23.6173 10.022 23.356C9.83533 23.2347 9.70933 23.0947 9.644 22.936C9.57867 22.7773 9.56 22.628 9.588 22.488C9.62533 22.3387 9.69533 22.2127 9.798 22.11C9.91 22.0073 10.0453 21.9467 10.204 21.928C10.372 21.9093 10.554 21.9513 10.75 22.054C11.1327 22.2593 11.5013 22.4087 11.856 22.502C12.2107 22.586 12.5747 22.628 12.948 22.628C13.3587 22.628 13.704 22.572 13.984 22.46C14.264 22.348 14.474 22.18 14.614 21.956C14.7633 21.732 14.838 21.4613 14.838 21.144C14.838 20.6773 14.6793 20.332 14.362 20.108C14.054 19.8747 13.6013 19.758 13.004 19.758H12.108C11.8467 19.758 11.646 19.6927 11.506 19.562C11.3753 19.4313 11.31 19.2493 11.31 19.016C11.31 18.7827 11.3753 18.6007 11.506 18.47C11.646 18.3393 11.8467 18.274 12.108 18.274H12.836C13.1907 18.274 13.494 18.218 13.746 18.106C13.998 17.9847 14.194 17.8167 14.334 17.602C14.474 17.3873 14.544 17.126 14.544 16.818C14.544 16.3887 14.3993 16.062 14.11 15.838C13.83 15.614 13.4193 15.502 12.878 15.502C12.5327 15.502 12.206 15.544 11.898 15.628C11.5993 15.7027 11.268 15.8473 10.904 16.062C10.736 16.1647 10.5727 16.2067 10.414 16.188C10.2647 16.1693 10.1387 16.1087 10.036 16.006C9.93333 15.9033 9.86333 15.782 9.826 15.642C9.78867 15.4927 9.798 15.3433 9.854 15.194C9.91 15.0353 10.0267 14.9 10.204 14.788C10.6053 14.5267 11.0487 14.3307 11.534 14.2C12.0193 14.06 12.5187 13.99 13.032 13.99C13.7133 13.99 14.2967 14.0973 14.782 14.312C15.2673 14.5173 15.636 14.816 15.888 15.208C16.1493 15.5907 16.28 16.0573 16.28 16.608C16.28 17 16.2053 17.3593 16.056 17.686C15.9067 18.0033 15.6967 18.274 15.426 18.498C15.1553 18.722 14.8287 18.8807 14.446 18.974V18.806C15.118 18.918 15.6407 19.198 16.014 19.646C16.3873 20.0847 16.574 20.6353 16.574 21.298C16.574 21.8767 16.4293 22.3807 16.14 22.81C15.8507 23.2393 15.44 23.5707 14.908 23.804C14.376 24.028 13.7413 24.14 13.004 24.14ZM21.6649 24.14C20.4982 24.14 19.6069 23.7013 18.9909 22.824C18.3749 21.9373 18.0669 20.6773 18.0669 19.044C18.0669 17.9427 18.2022 17.0187 18.4729 16.272C18.7529 15.516 19.1589 14.9467 19.6909 14.564C20.2322 14.1813 20.8902 13.99 21.6649 13.99C22.8409 13.99 23.7322 14.4193 24.3389 15.278C24.9549 16.1367 25.2629 17.3873 25.2629 19.03C25.2629 20.122 25.1229 21.0507 24.8429 21.816C24.5722 22.572 24.1709 23.1507 23.6389 23.552C23.1069 23.944 22.4489 24.14 21.6649 24.14ZM21.6649 22.67C22.2996 22.67 22.7662 22.376 23.0649 21.788C23.3729 21.2 23.5269 20.2807 23.5269 19.03C23.5269 17.7793 23.3729 16.874 23.0649 16.314C22.7662 15.7447 22.2996 15.46 21.6649 15.46C21.0396 15.46 20.5729 15.7447 20.2649 16.314C19.9569 16.874 19.8029 17.7793 19.8029 19.03C19.8029 20.2807 19.9569 21.2 20.2649 21.788C20.5729 22.376 21.0396 22.67 21.6649 22.67Z" fill="black"/>
</svg>
