<svg width="34" height="37" viewBox="0 0 34 37" fill="none" xmlns="http://www.w3.org/2000/svg">
<path d="M33.9371 21.9412C33.6878 24.7497 32.6999 27.4492 31.0679 29.7812C29.4359 32.1133 27.2145 34 24.6161 35.2607C22.0178 36.5214 19.1295 37.1141 16.2276 36.9819C13.3257 36.8497 10.5074 35.9971 8.04218 34.5057C5.59641 33.0135 3.57754 30.9474 2.17195 28.4982C0.766372 26.0489 0.0193962 23.2956 0 20.4923C0 20.2178 0.112373 19.9545 0.3124 19.7604C0.512426 19.5663 0.783721 19.4573 1.0666 19.4573C1.34948 19.4573 1.62078 19.5663 1.8208 19.7604C2.02083 19.9545 2.1332 20.2178 2.1332 20.4923C2.13259 23.1391 2.88169 25.7351 4.29867 27.9967C5.71565 30.2584 7.74599 32.0986 10.1678 33.3163C12.5897 34.534 15.3099 35.0825 18.0312 34.9016C20.7525 34.7208 23.3703 33.8176 25.5984 32.2909C27.7121 30.841 29.3989 28.8809 30.4922 26.6042C31.5854 24.3276 32.0472 21.8135 31.8317 19.3106C31.6162 16.8077 30.7309 14.4027 29.2636 12.3337C27.7962 10.2647 25.7975 8.60325 23.4652 7.51383C20.3277 6.28868 16.9364 5.79933 13.5672 6.08559V9.08698C13.5663 9.281 13.5091 9.47086 13.4024 9.6349C13.2956 9.79894 13.1434 9.93056 12.9633 10.0147C12.7831 10.0989 12.5822 10.1322 12.3835 10.1109C12.1847 10.0896 11.9962 10.0145 11.8393 9.89425L6.56813 5.85789C6.43967 5.76115 6.3357 5.63718 6.26418 5.49547C6.19265 5.35376 6.15547 5.19806 6.15547 5.04027C6.15547 4.88248 6.19265 4.72678 6.26418 4.58507C6.3357 4.44336 6.43967 4.31939 6.56813 4.22265L11.8819 0.206993C12.0404 0.0916704 12.2288 0.0214435 12.4261 0.00418243C12.6234 -0.0130787 12.8217 0.0233081 12.9989 0.109265C13.1761 0.195221 13.3251 0.327352 13.4292 0.490851C13.5333 0.654351 13.5885 0.842759 13.5885 1.03496V4.01566C15.1031 3.99496 16.639 3.95356 18.1322 4.05706C20.3867 4.20714 22.5879 4.79101 24.6075 5.77467C26.6272 6.75832 28.425 8.1221 29.8961 9.78656C31.3672 11.451 32.4824 13.3829 33.1765 15.4696C33.8706 17.5564 34.1299 19.7563 33.9393 21.9412H33.9371Z" fill="black"/>
<path d="M10.3755 23.9357C10.1329 23.9357 9.94153 23.8703 9.80153 23.7397C9.67086 23.5997 9.60553 23.413 9.60553 23.1797C9.60553 22.937 9.67086 22.755 9.80153 22.6337C9.94153 22.5123 10.1329 22.4517 10.3755 22.4517H11.9435V15.5777H12.8115L10.7535 16.8237C10.5762 16.9263 10.4082 16.9683 10.2495 16.9497C10.1002 16.9217 9.96953 16.8563 9.85753 16.7537C9.75486 16.6417 9.68486 16.511 9.64753 16.3617C9.6102 16.2123 9.61953 16.063 9.67553 15.9137C9.74086 15.755 9.8622 15.6243 10.0395 15.5217L11.9715 14.3597C12.1582 14.2477 12.3449 14.1543 12.5315 14.0797C12.7182 13.9957 12.8909 13.9537 13.0495 13.9537C13.2455 13.9537 13.4089 14.0097 13.5395 14.1217C13.6702 14.2243 13.7355 14.397 13.7355 14.6397V22.4517H15.1635C15.4062 22.4517 15.5929 22.5123 15.7235 22.6337C15.8635 22.755 15.9335 22.937 15.9335 23.1797C15.9335 23.4223 15.8635 23.609 15.7235 23.7397C15.5929 23.8703 15.4062 23.9357 15.1635 23.9357H10.3755ZM20.9404 24.0757C20.4458 24.0757 19.9418 24.0103 19.4284 23.8797C18.9151 23.749 18.4438 23.5483 18.0144 23.2777C17.8371 23.1657 17.7158 23.035 17.6504 22.8857C17.5944 22.727 17.5804 22.573 17.6084 22.4237C17.6458 22.265 17.7158 22.1343 17.8184 22.0317C17.9304 21.9197 18.0611 21.8543 18.2104 21.8357C18.3691 21.817 18.5418 21.859 18.7284 21.9617C19.0738 22.1577 19.4238 22.307 19.7784 22.4097C20.1331 22.5123 20.5111 22.5637 20.9124 22.5637C21.3044 22.5637 21.6404 22.4937 21.9204 22.3537C22.2004 22.2137 22.4151 22.0177 22.5644 21.7657C22.7138 21.5137 22.7884 21.2197 22.7884 20.8837C22.7884 20.361 22.6298 19.941 22.3124 19.6237C21.9951 19.297 21.5611 19.1337 21.0104 19.1337C20.7118 19.1337 20.4224 19.185 20.1424 19.2877C19.8624 19.381 19.5871 19.549 19.3164 19.7917C19.2324 19.8663 19.1251 19.941 18.9944 20.0157C18.8638 20.081 18.7238 20.1137 18.5744 20.1137C18.3411 20.1137 18.1638 20.053 18.0424 19.9317C17.9211 19.8103 17.8604 19.6423 17.8604 19.4277V14.8497C17.8604 14.5977 17.9258 14.4063 18.0564 14.2757C18.1964 14.1357 18.3924 14.0657 18.6444 14.0657H23.2504C23.5024 14.0657 23.6938 14.131 23.8244 14.2617C23.9644 14.383 24.0344 14.565 24.0344 14.8077C24.0344 15.041 23.9644 15.223 23.8244 15.3537C23.6938 15.4843 23.5024 15.5497 23.2504 15.5497H19.6104V18.6857H19.1484C19.3911 18.359 19.7131 18.107 20.1144 17.9297C20.5158 17.7523 20.9544 17.6637 21.4304 17.6637C22.0558 17.6637 22.5971 17.799 23.0544 18.0697C23.5211 18.331 23.8804 18.6997 24.1324 19.1757C24.3938 19.6423 24.5244 20.1883 24.5244 20.8137C24.5244 21.4577 24.3798 22.027 24.0904 22.5217C23.8011 23.007 23.3858 23.3897 22.8444 23.6697C22.3124 23.9403 21.6778 24.0757 20.9404 24.0757Z" fill="black"/>
</svg>
